<svg width="50" height="50" viewBox="0 0 50 50" fill="none" xmlns="http://www.w3.org/2000/svg">
<g filter="url(#filter0_d_336_557)">
<path d="M2 12C2 5.37258 7.37258 0 14 0H38C44.6274 0 50 5.37258 50 12V36C50 42.6274 44.6274 48 38 48H14C7.37258 48 2 42.6274 2 36V12Z" fill="url(#paint0_linear_336_557)" shape-rendering="crispEdges"/>
<path d="M3 12C3 5.92487 7.92487 1 14 1H38C44.0751 1 49 5.92487 49 12V36C49 42.0751 44.0751 47 38 47H14C7.92487 47 3 42.0751 3 36V12Z" stroke="black" stroke-width="2" shape-rendering="crispEdges"/>
<g clip-path="url(#clip0_336_557)">
<path fill-rule="evenodd" clip-rule="evenodd" d="M37.68 22.4807C37.4783 22.0881 37.1958 21.7425 36.8512 21.4668C36.5065 21.191 36.1073 20.9913 35.68 20.8807C35.2434 20.7565 34.7836 20.7379 34.3384 20.8266C33.8933 20.9153 33.4756 21.1086 33.12 21.3907C32.5721 21.8352 32.1718 22.4353 31.9719 23.1119C31.7719 23.7885 31.7817 24.5098 32 25.1807C32.41 26.2507 33.48 27.1107 35.39 26.9207C35.4815 26.9011 35.5628 26.8492 35.6192 26.7745C35.6757 26.6999 35.7034 26.6075 35.6973 26.5141C35.6912 26.4208 35.6518 26.3327 35.5862 26.266C35.5206 26.1993 35.4332 26.1583 35.34 26.1507C33.99 26.1507 33.24 25.6107 33.01 24.8407C32.9083 24.3816 32.9485 23.9024 33.1253 23.4666C33.3021 23.0309 33.6071 22.6591 34 22.4007C34.2048 22.2433 34.4422 22.1338 34.6949 22.0801C34.9475 22.0265 35.2089 22.0301 35.46 22.0907C35.7317 22.1449 35.99 22.2523 36.2199 22.4068C36.4499 22.5613 36.6471 22.7597 36.8 22.9907C37.0682 23.4128 37.1846 23.9136 37.13 24.4107C37.0909 24.9202 36.9032 25.4069 36.59 25.8107C36.5559 25.8383 36.5275 25.8723 36.5065 25.9109C36.4855 25.9494 36.4723 25.9917 36.4677 26.0353C36.463 26.079 36.467 26.1231 36.4794 26.1652C36.4918 26.2073 36.5124 26.2466 36.54 26.2807C36.5676 26.3148 36.6016 26.3432 36.6402 26.3642C36.6787 26.3852 36.721 26.3984 36.7646 26.403C36.8083 26.4077 36.8524 26.4037 36.8945 26.3913C36.9366 26.3789 36.9759 26.3583 37.01 26.3307C37.5191 25.8507 37.8682 25.2258 38.01 24.5407C38.134 23.8365 38.0178 23.111 37.68 22.4807Z" fill="black"/>
<path fill-rule="evenodd" clip-rule="evenodd" d="M26.38 20.9998C25.9434 20.8756 25.4836 20.8571 25.0384 20.9457C24.5933 21.0344 24.1756 21.2278 23.82 21.5098C23.3188 21.9348 22.9559 22.4996 22.7778 23.1321C22.5996 23.7646 22.6143 24.4358 22.82 25.0598C23.0229 25.6761 23.432 26.2037 23.9785 26.5534C24.525 26.9032 25.1754 27.0538 25.82 26.9798C25.9115 26.965 25.9947 26.9182 26.0547 26.8476C26.1148 26.7771 26.1478 26.6875 26.1478 26.5948C26.1478 26.5022 26.1148 26.4126 26.0547 26.342C25.9947 26.2715 25.9115 26.2246 25.82 26.2098C25.3586 26.2402 24.9015 26.1047 24.5312 25.8279C24.1608 25.551 23.9015 25.151 23.8 24.6998C23.6959 24.2898 23.7174 23.8579 23.8619 23.4602C24.0063 23.0625 24.267 22.7175 24.61 22.4698C24.8171 22.3133 25.0566 22.2052 25.311 22.1533C25.5654 22.1014 25.8281 22.107 26.08 22.1698C26.3501 22.2211 26.6067 22.3275 26.8338 22.4823C27.0609 22.6372 27.2536 22.8372 27.4 23.0698C27.6764 23.4849 27.7968 23.9844 27.74 24.4798C27.7033 24.9898 27.5153 25.4773 27.2 25.8798C27.131 25.9355 27.087 26.0163 27.0777 26.1045C27.0683 26.1926 27.0943 26.2809 27.15 26.3498C27.2057 26.4188 27.2865 26.4628 27.3746 26.4722C27.4628 26.4816 27.551 26.4555 27.62 26.3998C28.1299 25.9246 28.4794 25.3025 28.62 24.6198C28.7693 23.9212 28.6814 23.1928 28.37 22.5498C28.166 22.166 27.8833 21.8296 27.5404 21.5625C27.1975 21.2954 26.8021 21.1037 26.38 20.9998Z" fill="black"/>
<path fill-rule="evenodd" clip-rule="evenodd" d="M17.71 21.0005C17.2742 20.8749 16.8148 20.8548 16.3697 20.9417C15.9246 21.0286 15.5065 21.2202 15.15 21.5005C14.5786 21.9748 14.188 22.6316 14.0441 23.3601C13.9002 24.0887 14.0118 24.8446 14.36 25.5005C14.6453 26.1527 15.1613 26.6766 15.809 26.9719C16.4567 27.2671 17.1906 27.3129 17.87 27.1005C17.9658 27.0704 18.0467 27.0053 18.0967 26.9182C18.1468 26.8312 18.1622 26.7285 18.14 26.6305C18.1284 26.5821 18.1071 26.5365 18.0775 26.4965C18.0478 26.4565 18.0104 26.4228 17.9675 26.3976C17.9245 26.3724 17.8769 26.3561 17.8275 26.3498C17.7781 26.3434 17.7279 26.3471 17.68 26.3605C17.1905 26.4683 16.6784 26.3883 16.245 26.1365C15.8117 25.8846 15.4887 25.4792 15.34 25.0005C15.1453 24.5769 15.0987 24.1001 15.2075 23.6467C15.3163 23.1934 15.5743 22.7897 15.94 22.5005C16.1458 22.3413 16.3846 22.2299 16.6389 22.1745C16.8932 22.1192 17.1566 22.1212 17.41 22.1805C17.6833 22.2341 17.9433 22.3411 18.175 22.4956C18.4067 22.6501 18.6055 22.8489 18.76 23.0805C18.9916 23.434 19.1134 23.848 19.11 24.2705C19.1057 24.7197 18.9961 25.1615 18.79 25.5605C18.7526 25.6369 18.7451 25.7245 18.7691 25.8061C18.7931 25.8877 18.8468 25.9574 18.9196 26.0013C18.9924 26.0453 19.0791 26.0603 19.1625 26.0435C19.2458 26.0267 19.3199 25.9793 19.37 25.9105C19.6793 25.4349 19.8743 24.8941 19.94 24.3305C20.0148 23.7369 19.9103 23.1344 19.64 22.6005C19.449 22.2131 19.1783 21.8703 18.8458 21.5946C18.5132 21.3189 18.1262 21.1164 17.71 21.0005Z" fill="black"/>
</g>
</g>
<defs>
<filter id="filter0_d_336_557" x="0" y="0" width="50" height="50" filterUnits="userSpaceOnUse" color-interpolation-filters="sRGB">
<feFlood flood-opacity="0" result="BackgroundImageFix"/>
<feColorMatrix in="SourceAlpha" type="matrix" values="0 0 0 0 0 0 0 0 0 0 0 0 0 0 0 0 0 0 127 0" result="hardAlpha"/>
<feOffset dx="-2" dy="2"/>
<feComposite in2="hardAlpha" operator="out"/>
<feColorMatrix type="matrix" values="0 0 0 0 0 0 0 0 0 0 0 0 0 0 0 0 0 0 1 0"/>
<feBlend mode="normal" in2="BackgroundImageFix" result="effect1_dropShadow_336_557"/>
<feBlend mode="normal" in="SourceGraphic" in2="effect1_dropShadow_336_557" result="shape"/>
</filter>
<linearGradient id="paint0_linear_336_557" x1="26" y1="0" x2="67" y2="43.5" gradientUnits="userSpaceOnUse">
<stop stop-color="#FFD600"/>
<stop offset="1" stop-color="#FF7C02"/>
</linearGradient>
<clipPath id="clip0_336_557">
<rect width="24" height="24" fill="white" transform="translate(14 12)"/>
</clipPath>
</defs>
</svg>
