<svg width="14" height="14" viewBox="0 0 14 14" fill="none" xmlns="http://www.w3.org/2000/svg">
    <path d="M5.49463 13.2964C5.93408 13.2964 6.27832 13.1206 6.52002 12.7617L13.3755 2.18555C13.5513 1.92188 13.6245 1.68018 13.6245 1.45312C13.6245 0.852539 13.1851 0.42041 12.5698 0.42041C12.145 0.42041 11.8887 0.566895 11.6323 0.977051L5.46533 10.7329L2.31592 6.76318C2.06689 6.46289 1.81055 6.32373 1.44434 6.32373C0.821777 6.32373 0.375 6.76318 0.375 7.37109C0.375 7.63477 0.462891 7.88379 0.689941 8.14746L4.47656 12.7983C4.76221 13.1426 5.07715 13.2964 5.49463 13.2964Z" fill="white"/>
</svg>
