<svg width="48" height="48" viewBox="0 0 48 48" fill="none" xmlns="http://www.w3.org/2000/svg">
    <path d="M41.0556 6.40408C39.5424 6.612 38.2856 6.77451 37.0325 6.96057C36.1873 7.08602 35.3488 7.25451 34.504 7.38308C34.2065 7.44303 33.901 7.45115 33.6007 7.4071C33.228 7.33069 32.8987 7.08292 32.9053 6.66837C32.9029 6.37166 33.0081 6.08421 33.2013 5.85916C33.481 5.62479 33.8105 5.45728 34.1647 5.3693C34.8081 5.18195 35.4699 5.057 36.1244 4.90859C38.2063 4.43398 40.2883 3.95932 42.3704 3.48458C43.9719 3.11723 44.9011 3.7134 44.9994 5.34974C45.0872 6.81031 45.0193 8.28198 44.9796 9.74769C44.94 11.2134 44.8614 12.6769 44.7761 14.1402C44.7341 14.5252 44.6693 14.9074 44.5821 15.2847C44.0712 15.3973 43.8715 15.1562 43.7865 14.8555C43.5547 14.0343 43.3503 13.2048 43.1572 12.3733C42.992 11.6649 42.859 10.9493 42.673 10.0504C42.2928 10.4431 41.9718 10.7002 41.7424 11.0225C39.5465 14.1103 37.3724 17.2134 35.1783 20.3024C34.152 21.7474 33.1079 23.1797 32.0464 24.5991C31.656 25.1461 31.2114 25.6521 30.7191 26.1093C29.9004 26.8339 28.9771 26.8623 28.02 26.2402C27.5098 25.9087 27.0524 25.496 26.5701 25.1198C25.1276 23.9967 23.6643 22.9047 21.9669 22.0003C21.6538 22.2856 21.3565 22.5877 21.0766 22.9055C18.6521 25.9743 16.2341 29.0482 13.8226 32.1271C12.7644 33.4718 11.7157 34.8249 10.6232 36.1413C10.2335 36.609 9.78129 37.0206 9.27936 37.3646C8.66307 37.7859 8.35144 37.6388 7.6344 36.725C7.75795 36.4069 7.90793 36.0998 8.08276 35.8067C11.761 30.5499 15.4471 25.2985 19.1409 20.0525C20.6998 17.8435 21.5451 17.628 23.8842 18.9305C25.2689 19.7019 26.5765 20.6111 27.9152 21.464C28.2712 21.691 28.6137 21.9391 29.0487 22.2367L41.0556 6.40408Z" fill="black"/>
    <path d="M42.5985 43.3384C42.5777 43.2618 42.5645 43.183 42.5522 43.1105C42.5197 42.9202 42.4891 42.7404 42.3377 42.6669C41.9449 42.4799 41.5353 42.3306 41.1145 42.2211C38.3362 41.4758 35.4435 41.3123 32.7177 41.2087C32.1745 41.1881 31.6314 41.167 31.0882 41.1455C26.2718 40.956 21.2913 40.7598 16.3825 41.0645C13.5103 41.2427 10.5876 41.3929 7.76131 41.5382C6.97398 41.5788 6.1867 41.6196 5.39949 41.6602C5.21077 41.6653 5.02194 41.6554 4.83478 41.6308L4.68704 41.6161C4.67419 41.5683 4.66116 41.5233 4.64886 41.4811C4.61376 41.3858 4.59412 41.2853 4.59069 41.1837C4.68942 39.8964 4.79165 38.609 4.89736 37.322C5.05648 35.3523 5.2211 33.3153 5.36315 31.31C5.87483 24.0887 5.91996 17.7226 5.50133 11.848C5.30147 9.21265 4.84315 6.60337 4.13297 4.05783C4.05601 3.82141 3.9447 3.59758 3.8026 3.39362C3.74865 3.30766 3.69544 3.22288 3.64901 3.13802L3.57393 3L3.42621 3.05291C2.70513 3.31097 2.70787 3.8503 2.71044 4.2441V4.3302C2.70016 7.26678 2.69283 10.2031 2.68842 13.1393C2.68714 13.8472 2.6908 14.5551 2.69429 15.263C2.70145 16.6716 2.70879 18.1283 2.67594 19.5586C2.58032 23.7867 2.45461 27.8687 2.30026 32.7647C2.22813 35.0505 2.13362 37.3933 2.01928 39.7278C1.97193 40.695 1.9776 41.9702 2.44615 43.2585L2.4645 43.3081L2.50635 43.3406C3.39738 44.034 4.29833 44.0369 5.02271 44.0332C5.95736 44.0332 6.89213 44.031 7.82702 44.0266C8.90983 44.0235 9.99265 44.0211 11.0755 44.02C18.0047 44.0217 24.9339 44.0253 31.8632 44.0307H33.0859C33.6508 44.0307 34.216 44.0331 34.7817 44.038C35.3689 44.0415 35.9665 44.0452 36.5665 44.0452C37.18 44.0452 37.7961 44.0413 38.4078 44.0298C39.7685 43.9928 41.1235 43.8376 42.4573 43.5654L42.6511 43.5287L42.5985 43.3384Z" fill="black"/>
</svg>
