<svg width="48" height="48" viewBox="0 0 48 48" fill="none" xmlns="http://www.w3.org/2000/svg">
    <g clip-path="url(#clip0_579_7004)">
        <path d="M26.0201 25.808V33.5568C26.1181 33.5103 26.2093 33.4508 26.2913 33.3801C29.0397 29.9925 32.6854 28.2536 36.9169 27.5844C37.4852 27.4944 38.0504 27.3839 38.618 27.2872C39.6858 27.1071 40.3811 27.5757 40.599 28.6611C40.8112 29.7972 40.7783 30.9658 40.5023 32.0883C39.7496 35.4317 37.6732 37.8093 34.9132 39.6558C32.8377 41.0719 30.4965 42.0519 28.0311 42.5365C27.4051 42.6553 26.7593 42.6706 25.9962 42.7457C26.0136 43.2633 25.9923 43.7817 25.9326 44.2964C25.8059 44.9882 25.6195 45.6677 25.3753 46.3272C25.2989 46.5384 25.1524 46.7171 24.9601 46.8333C24.7679 46.9496 24.5416 46.9964 24.319 46.9659C24.0778 46.9552 23.8479 46.8605 23.6692 46.6982C23.4905 46.5358 23.3741 46.3161 23.3404 46.0772C23.1995 45.4185 23.1207 44.7453 23.045 44.0749C23.0244 43.7372 23.0223 43.3986 23.0387 43.0606C22.1076 42.9299 21.2605 42.879 20.4469 42.6852C15.1838 41.4322 11.1822 38.5211 8.73221 33.6293C8.44246 33.0558 8.22824 32.447 8.0949 31.8186C7.82508 30.5042 8.43544 29.4034 9.73104 29.0729C13.6769 28.0662 17.5276 28.295 21.1527 30.2915C21.9106 30.7089 22.5446 31.3513 23.3394 31.9712C23.6003 29.9777 23.6201 27.9867 23.7732 25.9674C22.5787 25.8288 21.4634 25.7715 20.3773 25.5615C15.6268 24.6433 12.3874 21.9667 11.1738 17.2039C10.2988 13.7705 10.927 10.4695 12.6576 7.40085C13.5845 5.73822 14.8118 4.26207 16.2774 3.04736C17.9488 1.66915 19.9512 1.07205 21.9961 0.569461C24.9777 -0.163525 27.9313 0.0815513 30.8127 1.01224C33.1073 1.73899 35.0202 3.34586 36.132 5.48067C37.908 8.76919 38.6655 12.2818 37.9086 15.9758C36.9052 20.872 33.788 23.8366 29.0365 25.1536C28.0648 25.425 27.0618 25.5857 26.0201 25.808ZM22.9067 2.40788C20.0441 2.36608 18.6768 2.87617 16.7524 4.9634C14.4665 7.44188 13.1164 10.3546 13.0731 13.7592C13.0221 17.7568 14.9388 21.8221 19.9881 23.0591C23.2063 23.8479 26.5889 23.6336 29.6819 22.445C33.0372 21.1969 35.0002 18.7285 35.5496 15.1612C35.9794 12.3701 35.3043 9.77893 34.1076 7.30065C33.0378 5.08347 31.2075 3.71318 28.8307 3.22724C26.8817 2.82865 24.8832 2.67175 22.9067 2.40788ZM23.1405 40.428C23.1405 39.1612 23.1502 37.8838 23.1298 36.607C23.104 36.4091 23.0208 36.2233 22.8907 36.0721C22.3415 35.3429 21.7633 34.6355 21.2175 33.9037C20.3944 32.8173 19.2533 32.0144 17.9528 31.6069C15.8633 30.8965 13.643 30.6552 11.4498 30.9002C11.1889 30.9446 10.9312 31.006 10.6784 31.0845C12.4062 36.8382 19.0037 40.6707 23.1405 40.428ZM38.1584 29.7086C37.9531 29.6833 37.7465 29.6738 37.5399 29.6801C35.5153 29.9523 33.5515 30.4285 31.759 31.4559C29.7936 32.5825 28.0642 33.9669 26.9193 35.9701C26.1825 37.1993 25.8572 38.6316 25.9908 40.0588C26.29 40.0788 26.5903 40.077 26.8892 40.0532C30.8858 39.3906 34.2444 37.5769 36.7247 34.3466C37.7586 33.0304 38.2693 31.3785 38.1584 29.7086Z" fill="black"/>
        <path d="M25.7545 19.827C25.6966 20.3141 25.6628 20.7846 25.581 21.2466C25.4556 21.9527 25.0968 22.3209 24.5766 22.333C24.0674 22.3449 23.6736 21.9901 23.5032 21.2989C23.383 20.8112 23.3208 20.3084 23.2332 19.8171C22.4804 19.5575 21.7475 19.3178 21.0242 19.0472C20.775 18.9413 20.5389 18.8068 20.3207 18.6465C19.8787 18.3493 19.6808 17.9268 19.8748 17.4182C20.0804 16.8792 20.5681 16.9408 21.0022 17.0303C21.7286 17.1801 22.446 17.3736 23.325 17.5872L23.5058 13.8088C23.0036 13.6503 22.5836 13.5298 22.1724 13.3846C20.0451 12.6338 19.7593 10.9004 20.6218 9.23255C21.149 8.2135 21.8142 7.66753 23.5868 6.75229C23.5698 6.36103 23.5472 5.93253 23.5329 5.50423C23.5183 5.08821 23.6805 4.68269 24.0973 4.6825C24.2703 4.70011 24.4377 4.75405 24.5884 4.84074C24.7391 4.92745 24.8698 5.04501 24.972 5.1857C25.2059 5.53456 25.2642 6.00109 25.3983 6.41711C26.1026 6.71427 26.8229 6.97834 27.501 7.32562C27.6242 7.40007 27.7312 7.49856 27.8156 7.61527C27.9 7.73199 27.9598 7.8645 27.9919 8.0049C28.061 8.39358 27.7506 8.62098 27.3829 8.67843C26.7886 8.77292 26.1899 8.83299 25.556 8.91203C25.5378 9.07567 25.5116 9.20344 25.5112 9.33122C25.5079 10.3101 25.5094 11.2889 25.5094 12.2744C25.8524 12.3959 26.0661 12.4797 26.285 12.5472C26.6719 12.6671 27.0673 12.7618 27.4501 12.8935C30.1088 13.8085 30.0928 15.7587 29.0187 17.5489C28.4596 18.48 27.6018 19.0805 26.6153 19.5018C26.3391 19.6209 26.0528 19.7154 25.7545 19.827ZM25.6661 14.1414V17.59C26.5947 17.2974 27.2791 16.8639 27.6753 16.0616C28.0097 15.3845 27.8905 14.9615 27.2268 14.659C26.7165 14.4581 26.1955 14.2855 25.6661 14.142V14.1414ZM23.5405 9.311C22.4529 9.74029 21.8629 10.3247 21.9784 10.9319C22.1298 11.7259 22.8303 11.7483 23.5405 11.9281V9.311Z" fill="black"/>
    </g>
    <defs>
        <clipPath id="clip0_579_7004">
            <rect width="32.8853" height="47.1487" fill="white" transform="translate(8)"/>
        </clipPath>
    </defs>
</svg>
