<svg width="36" height="36" viewBox="0 0 36 36" fill="none" xmlns="http://www.w3.org/2000/svg">
    <rect x="1" y="1" width="34" height="34" rx="17" stroke="black" stroke-width="2"/>
    <path d="M18 34C26.8366 34 34 26.8366 34 18C34 9.16344 26.8366 2 18 2C9.16344 2 2 9.16344 2 18C2 26.8366 9.16344 34 18 34Z" fill="#F0F0F0"/>
    <path d="M17.3044 17.9996H34C34 16.5555 33.8075 15.1565 33.4488 13.8257H17.3044V17.9996Z" fill="#D80027"/>
    <path d="M17.3044 9.65196H31.6516C30.6722 8.05371 29.4199 6.64103 27.9598 5.47803H17.3044V9.65196Z" fill="#D80027"/>
    <path d="M18 33.9997C21.7656 33.9997 25.2267 32.6982 27.9598 30.5215H8.04028C10.7734 32.6982 14.2345 33.9997 18 33.9997Z" fill="#D80027"/>
    <path d="M4.3484 26.3478H31.6516C32.438 25.0647 33.0478 23.6622 33.4488 22.1738H2.55121C2.95227 23.6622 3.56208 25.0647 4.3484 26.3478Z" fill="#D80027"/>
    <path d="M9.4115 4.49863H10.8696L9.51331 5.48394L10.0314 7.07825L8.67519 6.09294L7.319 7.07825L7.7665 5.70094C6.57237 6.69562 5.52575 7.861 4.66325 9.1595H5.13044L4.26712 9.78669C4.13262 10.0111 4.00362 10.239 3.88 10.4703L4.29225 11.7391L3.52313 11.1803C3.33194 11.5854 3.15706 11.9996 2.99988 12.4224L3.45406 13.8204H5.13044L3.77419 14.8057L4.29225 16.4L2.93606 15.4147L2.12369 16.0049C2.04237 16.6586 2 17.3243 2 18H18C18 9.1635 18 8.12175 18 2C14.8393 2 11.8928 2.91688 9.4115 4.49863ZM10.0314 16.4L8.67519 15.4147L7.319 16.4L7.83706 14.8057L6.48081 13.8204H8.15719L8.67519 12.2261L9.19319 13.8204H10.8696L9.51331 14.8057L10.0314 16.4ZM9.51331 10.1448L10.0314 11.7391L8.67519 10.7538L7.319 11.7391L7.83706 10.1448L6.48081 9.1595H8.15719L8.67519 7.56519L9.19319 9.1595H10.8696L9.51331 10.1448ZM15.7705 16.4L14.4143 15.4147L13.0581 16.4L13.5762 14.8057L12.2199 13.8204H13.8963L14.4143 12.2261L14.9323 13.8204H16.6087L15.2524 14.8057L15.7705 16.4ZM15.2524 10.1448L15.7705 11.7391L14.4143 10.7538L13.0581 11.7391L13.5762 10.1448L12.2199 9.1595H13.8963L14.4143 7.56519L14.9323 9.1595H16.6087L15.2524 10.1448ZM15.2524 5.48394L15.7705 7.07825L14.4143 6.09294L13.0581 7.07825L13.5762 5.48394L12.2199 4.49863H13.8963L14.4143 2.90431L14.9323 4.49863H16.6087L15.2524 5.48394Z" fill="#0052B4"/>
</svg>
