<svg width="20" height="20" viewBox="0 0 20 20" fill="none" xmlns="http://www.w3.org/2000/svg">
<path d="M10.625 9.1665C10.625 9.00074 10.5592 8.84177 10.4419 8.72456C10.3247 8.60735 10.1658 8.5415 10 8.5415C9.83424 8.5415 9.67527 8.60735 9.55806 8.72456C9.44085 8.84177 9.375 9.00074 9.375 9.1665V14.1665C9.375 14.3323 9.44085 14.4912 9.55806 14.6084C9.67527 14.7257 9.83424 14.7915 10 14.7915C10.1658 14.7915 10.3247 14.7257 10.4419 14.6084C10.5592 14.4912 10.625 14.3323 10.625 14.1665V9.1665Z" fill="black" fill-opacity="0.6"/>
<path fill-rule="evenodd" clip-rule="evenodd" d="M10 1.0415C5.05252 1.0415 1.04169 5.05234 1.04169 9.99984C1.04169 14.9473 5.05252 18.9582 10 18.9582C14.9475 18.9582 18.9584 14.9473 18.9584 9.99984C18.9584 5.05234 14.9475 1.0415 10 1.0415ZM2.29169 9.99984C2.29169 7.95546 3.10381 5.99482 4.54941 4.54922C5.995 3.10363 7.95564 2.2915 10 2.2915C12.0444 2.2915 14.005 3.10363 15.4506 4.54922C16.8962 5.99482 17.7084 7.95546 17.7084 9.99984C17.7084 12.0442 16.8962 14.0049 15.4506 15.4505C14.005 16.896 12.0444 17.7082 10 17.7082C7.95564 17.7082 5.995 16.896 4.54941 15.4505C3.10381 14.0049 2.29169 12.0442 2.29169 9.99984Z" fill="black" fill-opacity="0.6"/>
<path d="M10.8334 6.66634C10.8334 6.88735 10.7456 7.09932 10.5893 7.2556C10.433 7.41188 10.221 7.49967 10 7.49967C9.77901 7.49967 9.56705 7.41188 9.41076 7.2556C9.25448 7.09932 9.16669 6.88735 9.16669 6.66634C9.16669 6.44533 9.25448 6.23337 9.41076 6.07709C9.56705 5.92081 9.77901 5.83301 10 5.83301C10.221 5.83301 10.433 5.92081 10.5893 6.07709C10.7456 6.23337 10.8334 6.44533 10.8334 6.66634Z" fill="black" fill-opacity="0.6"/>
</svg>
