<svg width="56" height="56" viewBox="0 0 56 56" fill="none" xmlns="http://www.w3.org/2000/svg">
    <path fill-rule="evenodd" clip-rule="evenodd" d="M42.1798 39.6838C42.2849 39.0091 42.2058 38.3185 41.9508 37.685C41.6958 37.0515 41.2744 36.4987 40.7312 36.0849C40.1879 35.6711 39.543 35.4117 38.8645 35.3342C38.1861 35.2566 37.4993 35.3638 36.8767 35.6443C35.0335 36.5534 33.3702 37.7886 31.9671 39.2902C31.097 40.0153 28.114 42.2111 28.0518 42.2733C26.473 42.263 24.9112 41.9464 23.453 41.3411C23.453 41.3411 23.453 41.3411 23.3287 41.3411C23.2044 41.3411 23.4737 40.9682 23.7016 40.6575C26.1667 37.2394 29.3362 36.0586 27.0989 32.5991C26.7434 32.107 26.2415 31.7399 25.6648 31.5501C25.0882 31.3604 24.4663 31.3578 23.888 31.5426C20.2214 32.2262 16.6583 35.8929 13.1781 37.2187C13.0331 37.2187 12.8674 37.2187 12.8259 37.3223C12.2252 33.407 8.53782 34.4221 7.12916 34.4221C5.72051 34.4221 2.48888 34.0906 3.06892 35.4786C3.13327 35.6342 3.25619 35.7583 3.41118 35.8242C3.56617 35.8901 3.74083 35.8924 3.89754 35.8307C4.91791 35.6898 5.9549 35.7248 6.96344 35.9343C8.86927 36.1415 10.3401 35.6029 10.5679 37.3637V49.0265C10.5679 50.4145 10.4436 50.7874 8.2478 50.9738C6.89859 51.0663 5.54323 51.0037 4.20827 50.7874C4.03469 50.7803 3.86434 50.8358 3.72824 50.9438C3.59214 51.0518 3.49933 51.205 3.46671 51.3757C3.43409 51.5463 3.46382 51.723 3.5505 51.8735C3.63717 52.0241 3.77503 52.1385 3.93897 52.196C5.3654 52.5319 6.82397 52.7125 8.28923 52.7346C10.3608 52.7346 11.6659 52.4239 12.4323 50.6631L17.114 49.6273C24.4888 51.5331 34.6394 51.9474 41.1441 47.8043C43.6092 46.2092 46.3644 44.2205 44.9972 41.5897C44.7552 41.0386 44.3622 40.5672 43.8637 40.23C43.3652 39.8927 42.7814 39.7034 42.1798 39.6838ZM33.1272 41.0303C35.1987 39.7667 37.8089 37.0115 39.3418 37.633C39.7871 37.7809 40.1602 38.0912 40.3867 38.5021C40.6133 38.9129 40.6766 39.3941 40.564 39.8496C36.7109 40.6782 34.8051 41.5068 31.3663 41.9211L33.1272 41.0303ZM39.7768 45.8985C30.952 51.9681 17.3005 47.68 16.9898 47.7836L12.7016 48.5915C13.3024 43.9098 12.7016 39.1452 12.9295 39.1038C13.1574 39.0624 13.6338 38.7102 14.2967 38.4202C18.1084 36.7837 20.9257 34.0906 23.4323 33.3656C24.3023 33.117 25.0895 32.8891 25.5038 33.4899C26.8296 35.5614 24.4473 36.1 22.0029 39.2695C20.7393 40.8853 21.0293 41.9833 21.7958 42.7497C22.8935 43.5599 24.1744 44.0865 25.5246 44.2827C30.1855 45.4428 38.0989 42.8119 39.9011 42.4597C41.2684 42.1697 42.242 41.5275 42.8427 42.6669C43.4435 43.8062 40.709 45.277 39.7768 45.8985Z" fill="black"/>
    <path fill-rule="evenodd" clip-rule="evenodd" d="M42.4699 25.8044C44.9796 25.51 47.3888 24.6455 49.5131 23.2771C49.6536 23.1699 49.7501 23.015 49.7844 22.8416C49.8187 22.6682 49.7885 22.4882 49.6994 22.3355C49.6104 22.1829 49.4686 22.068 49.3008 22.0125C49.1329 21.957 48.9506 21.9647 48.7881 22.0342C46.7973 23.101 44.5829 23.683 42.3249 23.7329C34.888 24.0229 32.6093 23.4636 28.9426 22.0756C27.6376 21.8063 27.6376 23.0078 28.6733 23.8572C34.2665 26.7159 36.9803 26.3016 42.4699 25.8044Z" fill="black"/>
    <path fill-rule="evenodd" clip-rule="evenodd" d="M52.4962 21.7856C51.854 7.9269 51.9368 9.02482 51.8125 8.77623C52.6826 6.22822 48.9952 3.6595 46.7165 3.70093C46.5479 3.72975 46.3948 3.8173 46.2845 3.9481C46.1741 4.07889 46.1136 4.24449 46.1136 4.41562C46.1136 4.58674 46.1741 4.75234 46.2845 4.88313C46.3948 5.01393 46.5479 5.10148 46.7165 5.1303C48.2909 5.1303 51.2532 7.36758 49.8031 8.69337C47.7316 10.5785 43.3813 10.7649 40.6262 10.9306C36.9181 11.1378 30.7241 11.2207 28.1968 8.40335C27.9068 8.07191 27.8447 7.67831 28.3211 7.20185C32.3814 4.26025 37.7674 4.65384 43.0706 4.75742C44.79 4.861 45.3286 5.02672 45.4736 4.36383C45.4919 4.28354 45.494 4.20043 45.4799 4.11931C45.4658 4.03819 45.4357 3.96068 45.3913 3.8913C45.347 3.82191 45.2893 3.76203 45.2217 3.71512C45.154 3.66822 45.0777 3.63523 44.9971 3.61807C40.5226 3.12089 34.8465 2.52014 30.4963 3.61807C29.1447 4.00951 27.8746 4.64104 26.7468 5.48247C26.2763 5.84531 25.9287 6.34388 25.7509 6.91074C25.573 7.4776 25.5736 8.0854 25.7524 8.65194C25.421 11.5314 25.7524 14.6387 25.5867 16.296C25.4831 17.6218 25.4417 19.6312 25.4624 21.5991C25.4624 25.7423 25.4624 28.2903 27.2025 30.1754C29.9162 33.117 40.564 34.6706 49.0367 30.5068C53.4698 28.311 52.6826 25.0794 52.4962 21.7856ZM50.611 25.5972C50.4817 26.2608 50.1772 26.8777 49.7292 27.384C49.2812 27.8903 48.7059 28.2675 48.063 28.4767C45.0148 29.702 41.7914 30.4362 38.5132 30.6518C36.422 30.7668 34.3256 30.5572 32.2985 30.0304C30.8498 29.6651 29.4564 29.1077 28.1554 28.3731C26.5603 27.2545 26.9746 12.3186 26.9539 10.4128C28.9497 12.0946 31.4337 13.0896 34.0386 13.2508C38.4067 13.5419 42.7937 13.1647 47.048 12.1322C48.2885 11.7912 49.4546 11.2222 50.4868 10.4542C50.611 26.8402 50.7146 24.7686 50.611 25.5972Z" fill="black"/>
    <path fill-rule="evenodd" clip-rule="evenodd" d="M38.4304 19.4654C42.019 19.6041 45.5933 18.9388 48.8917 17.5181C49.0593 17.4302 49.1851 17.2793 49.2414 17.0987C49.2977 16.918 49.28 16.7224 49.1921 16.5548C49.1042 16.3873 48.9533 16.2615 48.7727 16.2052C48.592 16.1488 48.3964 16.1666 48.2288 16.2545C46.3977 16.8532 44.479 17.1403 42.5528 17.1038C37.8421 17.0105 33.143 16.6022 28.4869 15.8816C27.4926 15.8816 27.1404 17.5388 28.9219 17.9531C31.933 19.1815 35.1868 19.699 38.4304 19.4654Z" fill="black"/>
</svg>
