<svg width="404" height="88" viewBox="0 0 404 88" fill="none" xmlns="http://www.w3.org/2000/svg">
<mask id="path-1-outside-1_2009_31" maskUnits="userSpaceOnUse" x="1" y="14" width="402" height="62" fill="black">
<rect fill="white" x="1" y="14" width="402" height="62"/>
<path d="M5.04 70V19.6H28.872C34.44 19.6 39.336 20.632 43.56 22.696C47.784 24.76 51.072 27.664 53.424 31.408C55.824 35.152 57.024 39.616 57.024 44.8C57.024 49.936 55.824 54.4 53.424 58.192C51.072 61.936 47.784 64.84 43.56 66.904C39.336 68.968 34.44 70 28.872 70H5.04ZM19.296 58.624H28.296C31.176 58.624 33.672 58.096 35.784 57.04C37.944 55.936 39.624 54.352 40.824 52.288C42.024 50.176 42.624 47.68 42.624 44.8C42.624 41.872 42.024 39.376 40.824 37.312C39.624 35.248 37.944 33.688 35.784 32.632C33.672 31.528 31.176 30.976 28.296 30.976H19.296V58.624ZM92.8204 71.008C88.7884 71.008 85.0684 70.36 81.6604 69.064C78.2524 67.768 75.2764 65.944 72.7324 63.592C70.2364 61.192 68.2924 58.408 66.9004 55.24C65.5084 52.072 64.8124 48.592 64.8124 44.8C64.8124 41.008 65.5084 37.528 66.9004 34.36C68.2924 31.192 70.2364 28.432 72.7324 26.08C75.2764 23.68 78.2524 21.832 81.6604 20.536C85.0684 19.24 88.7884 18.592 92.8204 18.592C96.9004 18.592 100.62 19.24 103.98 20.536C107.388 21.832 110.34 23.68 112.836 26.08C115.332 28.432 117.276 31.192 118.668 34.36C120.108 37.528 120.828 41.008 120.828 44.8C120.828 48.592 120.108 52.096 118.668 55.312C117.276 58.48 115.332 61.24 112.836 63.592C110.34 65.944 107.388 67.768 103.98 69.064C100.62 70.36 96.9004 71.008 92.8204 71.008ZM92.8204 59.2C94.7404 59.2 96.5164 58.864 98.1484 58.192C99.8284 57.52 101.268 56.56 102.468 55.312C103.716 54.016 104.676 52.48 105.348 50.704C106.068 48.928 106.428 46.96 106.428 44.8C106.428 42.592 106.068 40.624 105.348 38.896C104.676 37.12 103.716 35.608 102.468 34.36C101.268 33.064 99.8284 32.08 98.1484 31.408C96.5164 30.736 94.7404 30.4 92.8204 30.4C90.9004 30.4 89.1004 30.736 87.4204 31.408C85.7884 32.08 84.3484 33.064 83.1004 34.36C81.9004 35.608 80.9404 37.12 80.2204 38.896C79.5484 40.624 79.2124 42.592 79.2124 44.8C79.2124 46.96 79.5484 48.928 80.2204 50.704C80.9404 52.48 81.9004 54.016 83.1004 55.312C84.3484 56.56 85.7884 57.52 87.4204 58.192C89.1004 58.864 90.9004 59.2 92.8204 59.2ZM156.375 71.008C152.391 71.008 148.695 70.384 145.287 69.136C141.879 67.84 138.927 66.016 136.431 63.664C133.983 61.312 132.063 58.552 130.671 55.384C129.279 52.168 128.583 48.64 128.583 44.8C128.583 40.96 129.279 37.456 130.671 34.288C132.063 31.072 134.007 28.288 136.503 25.936C138.999 23.584 141.951 21.784 145.359 20.536C148.815 19.24 152.583 18.592 156.663 18.592C161.415 18.592 165.663 19.384 169.407 20.968C173.151 22.552 176.247 24.832 178.695 27.808L169.623 36.016C167.895 34.144 166.023 32.752 164.007 31.84C162.039 30.88 159.831 30.4 157.383 30.4C155.223 30.4 153.255 30.736 151.479 31.408C149.703 32.08 148.191 33.064 146.943 34.36C145.695 35.608 144.711 37.12 143.991 38.896C143.319 40.624 142.983 42.592 142.983 44.8C142.983 46.912 143.319 48.856 143.991 50.632C144.711 52.408 145.695 53.944 146.943 55.24C148.191 56.488 149.679 57.472 151.407 58.192C153.183 58.864 155.127 59.2 157.239 59.2C159.351 59.2 161.415 58.864 163.431 58.192C165.447 57.472 167.487 56.272 169.551 54.592L177.543 64.6C174.663 66.664 171.327 68.248 167.535 69.352C163.743 70.456 160.023 71.008 156.375 71.008ZM164.943 62.728V43.72H177.543V64.6L164.943 62.728ZM214.661 71.008C210.677 71.008 206.981 70.384 203.573 69.136C200.165 67.84 197.213 66.016 194.717 63.664C192.269 61.312 190.349 58.552 188.957 55.384C187.565 52.168 186.869 48.64 186.869 44.8C186.869 40.96 187.565 37.456 188.957 34.288C190.349 31.072 192.293 28.288 194.789 25.936C197.285 23.584 200.237 21.784 203.645 20.536C207.101 19.24 210.869 18.592 214.949 18.592C219.701 18.592 223.949 19.384 227.693 20.968C231.437 22.552 234.533 24.832 236.981 27.808L227.909 36.016C226.181 34.144 224.309 32.752 222.293 31.84C220.325 30.88 218.117 30.4 215.669 30.4C213.509 30.4 211.541 30.736 209.765 31.408C207.989 32.08 206.477 33.064 205.229 34.36C203.981 35.608 202.997 37.12 202.277 38.896C201.605 40.624 201.269 42.592 201.269 44.8C201.269 46.912 201.605 48.856 202.277 50.632C202.997 52.408 203.981 53.944 205.229 55.24C206.477 56.488 207.965 57.472 209.693 58.192C211.469 58.864 213.413 59.2 215.525 59.2C217.637 59.2 219.701 58.864 221.717 58.192C223.733 57.472 225.773 56.272 227.837 54.592L235.829 64.6C232.949 66.664 229.613 68.248 225.821 69.352C222.029 70.456 218.309 71.008 214.661 71.008ZM223.229 62.728V43.72H235.829V64.6L223.229 62.728ZM260.492 70V48.688L263.804 57.256L241.268 19.6H256.316L272.588 46.888H263.876L280.22 19.6H294.044L271.58 57.256L274.748 48.688V70H260.492ZM318.334 70L340.582 19.6H354.622L376.942 70H362.111L344.687 26.584H350.302L332.878 70H318.334ZM330.502 60.208L334.174 49.696H358.799L362.471 60.208H330.502ZM383.864 70V19.6H398.12V70H383.864Z"/>
</mask>
<path d="M5.04 70V19.6H28.872C34.44 19.6 39.336 20.632 43.56 22.696C47.784 24.76 51.072 27.664 53.424 31.408C55.824 35.152 57.024 39.616 57.024 44.8C57.024 49.936 55.824 54.4 53.424 58.192C51.072 61.936 47.784 64.84 43.56 66.904C39.336 68.968 34.44 70 28.872 70H5.04ZM19.296 58.624H28.296C31.176 58.624 33.672 58.096 35.784 57.04C37.944 55.936 39.624 54.352 40.824 52.288C42.024 50.176 42.624 47.68 42.624 44.8C42.624 41.872 42.024 39.376 40.824 37.312C39.624 35.248 37.944 33.688 35.784 32.632C33.672 31.528 31.176 30.976 28.296 30.976H19.296V58.624ZM92.8204 71.008C88.7884 71.008 85.0684 70.36 81.6604 69.064C78.2524 67.768 75.2764 65.944 72.7324 63.592C70.2364 61.192 68.2924 58.408 66.9004 55.24C65.5084 52.072 64.8124 48.592 64.8124 44.8C64.8124 41.008 65.5084 37.528 66.9004 34.36C68.2924 31.192 70.2364 28.432 72.7324 26.08C75.2764 23.68 78.2524 21.832 81.6604 20.536C85.0684 19.24 88.7884 18.592 92.8204 18.592C96.9004 18.592 100.62 19.24 103.98 20.536C107.388 21.832 110.34 23.68 112.836 26.08C115.332 28.432 117.276 31.192 118.668 34.36C120.108 37.528 120.828 41.008 120.828 44.8C120.828 48.592 120.108 52.096 118.668 55.312C117.276 58.48 115.332 61.24 112.836 63.592C110.34 65.944 107.388 67.768 103.98 69.064C100.62 70.36 96.9004 71.008 92.8204 71.008ZM92.8204 59.2C94.7404 59.2 96.5164 58.864 98.1484 58.192C99.8284 57.52 101.268 56.56 102.468 55.312C103.716 54.016 104.676 52.48 105.348 50.704C106.068 48.928 106.428 46.96 106.428 44.8C106.428 42.592 106.068 40.624 105.348 38.896C104.676 37.12 103.716 35.608 102.468 34.36C101.268 33.064 99.8284 32.08 98.1484 31.408C96.5164 30.736 94.7404 30.4 92.8204 30.4C90.9004 30.4 89.1004 30.736 87.4204 31.408C85.7884 32.08 84.3484 33.064 83.1004 34.36C81.9004 35.608 80.9404 37.12 80.2204 38.896C79.5484 40.624 79.2124 42.592 79.2124 44.8C79.2124 46.96 79.5484 48.928 80.2204 50.704C80.9404 52.48 81.9004 54.016 83.1004 55.312C84.3484 56.56 85.7884 57.52 87.4204 58.192C89.1004 58.864 90.9004 59.2 92.8204 59.2ZM156.375 71.008C152.391 71.008 148.695 70.384 145.287 69.136C141.879 67.84 138.927 66.016 136.431 63.664C133.983 61.312 132.063 58.552 130.671 55.384C129.279 52.168 128.583 48.64 128.583 44.8C128.583 40.96 129.279 37.456 130.671 34.288C132.063 31.072 134.007 28.288 136.503 25.936C138.999 23.584 141.951 21.784 145.359 20.536C148.815 19.24 152.583 18.592 156.663 18.592C161.415 18.592 165.663 19.384 169.407 20.968C173.151 22.552 176.247 24.832 178.695 27.808L169.623 36.016C167.895 34.144 166.023 32.752 164.007 31.84C162.039 30.88 159.831 30.4 157.383 30.4C155.223 30.4 153.255 30.736 151.479 31.408C149.703 32.08 148.191 33.064 146.943 34.36C145.695 35.608 144.711 37.12 143.991 38.896C143.319 40.624 142.983 42.592 142.983 44.8C142.983 46.912 143.319 48.856 143.991 50.632C144.711 52.408 145.695 53.944 146.943 55.24C148.191 56.488 149.679 57.472 151.407 58.192C153.183 58.864 155.127 59.2 157.239 59.2C159.351 59.2 161.415 58.864 163.431 58.192C165.447 57.472 167.487 56.272 169.551 54.592L177.543 64.6C174.663 66.664 171.327 68.248 167.535 69.352C163.743 70.456 160.023 71.008 156.375 71.008ZM164.943 62.728V43.72H177.543V64.6L164.943 62.728ZM214.661 71.008C210.677 71.008 206.981 70.384 203.573 69.136C200.165 67.84 197.213 66.016 194.717 63.664C192.269 61.312 190.349 58.552 188.957 55.384C187.565 52.168 186.869 48.64 186.869 44.8C186.869 40.96 187.565 37.456 188.957 34.288C190.349 31.072 192.293 28.288 194.789 25.936C197.285 23.584 200.237 21.784 203.645 20.536C207.101 19.24 210.869 18.592 214.949 18.592C219.701 18.592 223.949 19.384 227.693 20.968C231.437 22.552 234.533 24.832 236.981 27.808L227.909 36.016C226.181 34.144 224.309 32.752 222.293 31.84C220.325 30.88 218.117 30.4 215.669 30.4C213.509 30.4 211.541 30.736 209.765 31.408C207.989 32.08 206.477 33.064 205.229 34.36C203.981 35.608 202.997 37.12 202.277 38.896C201.605 40.624 201.269 42.592 201.269 44.8C201.269 46.912 201.605 48.856 202.277 50.632C202.997 52.408 203.981 53.944 205.229 55.24C206.477 56.488 207.965 57.472 209.693 58.192C211.469 58.864 213.413 59.2 215.525 59.2C217.637 59.2 219.701 58.864 221.717 58.192C223.733 57.472 225.773 56.272 227.837 54.592L235.829 64.6C232.949 66.664 229.613 68.248 225.821 69.352C222.029 70.456 218.309 71.008 214.661 71.008ZM223.229 62.728V43.72H235.829V64.6L223.229 62.728ZM260.492 70V48.688L263.804 57.256L241.268 19.6H256.316L272.588 46.888H263.876L280.22 19.6H294.044L271.58 57.256L274.748 48.688V70H260.492ZM318.334 70L340.582 19.6H354.622L376.942 70H362.111L344.687 26.584H350.302L332.878 70H318.334ZM330.502 60.208L334.174 49.696H358.799L362.471 60.208H330.502ZM383.864 70V19.6H398.12V70H383.864Z" fill="url(#paint0_linear_2009_31)"/>
<path d="M5.04 70H1.04V74H5.04V70ZM5.04 19.6V15.6H1.04V19.6H5.04ZM43.56 22.696L41.8039 26.2899L41.8039 26.2899L43.56 22.696ZM53.424 31.408L50.0369 33.5358L50.0466 33.5513L50.0565 33.5667L53.424 31.408ZM53.424 58.192L50.0441 56.0528L50.0369 56.0642L53.424 58.192ZM19.296 58.624H15.296V62.624H19.296V58.624ZM35.784 57.04L37.5729 60.6177L37.5887 60.6098L37.6044 60.6017L35.784 57.04ZM40.824 52.288L44.282 54.2985L44.292 54.2813L44.3018 54.264L40.824 52.288ZM40.824 37.312L44.282 35.3015L40.824 37.312ZM35.784 32.632L33.931 36.1769L33.9787 36.2019L34.0272 36.2255L35.784 32.632ZM19.296 30.976V26.976H15.296V30.976H19.296ZM9.04 70V19.6H1.04V70H9.04ZM5.04 23.6H28.872V15.6H5.04V23.6ZM28.872 23.6C33.9427 23.6 38.2187 24.538 41.8039 26.2899L45.3161 19.1021C40.4533 16.726 34.9373 15.6 28.872 15.6V23.6ZM41.8039 26.2899C45.4025 28.0483 48.1068 30.4633 50.0369 33.5358L56.8111 29.2802C54.0372 24.8647 50.1655 21.4717 45.3161 19.1021L41.8039 26.2899ZM50.0565 33.5667C51.9789 36.5656 53.024 40.2519 53.024 44.8H61.024C61.024 38.9801 59.6691 33.7384 56.7915 29.2493L50.0565 33.5667ZM53.024 44.8C53.024 49.2907 51.983 52.9893 50.0441 56.0528L56.8039 60.3312C59.665 55.8107 61.024 50.5813 61.024 44.8H53.024ZM50.0369 56.0642C48.1068 59.1367 45.4025 61.5517 41.8039 63.3101L45.3161 70.4979C50.1655 68.1283 54.0372 64.7353 56.8111 60.3198L50.0369 56.0642ZM41.8039 63.3101C38.2187 65.062 33.9427 66 28.872 66V74C34.9373 74 40.4533 72.874 45.3161 70.4979L41.8039 63.3101ZM28.872 66H5.04V74H28.872V66ZM19.296 62.624H28.296V54.624H19.296V62.624ZM28.296 62.624C31.6627 62.624 34.7966 62.0058 37.5729 60.6177L33.9951 53.4623C32.5474 54.1862 30.6893 54.624 28.296 54.624V62.624ZM37.6044 60.6017C40.4362 59.1544 42.6898 57.0372 44.282 54.2985L37.366 50.2775C36.5582 51.6669 35.4518 52.7176 33.9636 53.4783L37.6044 60.6017ZM44.3018 54.264C45.9026 51.4466 46.624 48.2438 46.624 44.8H38.624C38.624 47.1162 38.1454 48.9054 37.3462 50.312L44.3018 54.264ZM46.624 44.8C46.624 41.3248 45.9092 38.1003 44.282 35.3015L37.366 39.3225C38.1388 40.6517 38.624 42.4192 38.624 44.8H46.624ZM44.282 35.3015C42.6811 32.548 40.4067 30.4396 37.5408 29.0385L34.0272 36.2255C35.4813 36.9364 36.5669 37.948 37.366 39.3225L44.282 35.3015ZM37.637 29.0871C34.8456 27.628 31.688 26.976 28.296 26.976V34.976C30.664 34.976 32.4984 35.428 33.931 36.1769L37.637 29.0871ZM28.296 26.976H19.296V34.976H28.296V26.976ZM15.296 30.976V58.624H23.296V30.976H15.296ZM81.6604 69.064L80.2386 72.8028L81.6604 69.064ZM72.7324 63.592L69.9599 66.4753L69.9882 66.5025L70.017 66.5291L72.7324 63.592ZM66.9004 55.24L63.2383 56.8491H63.2383L66.9004 55.24ZM66.9004 34.36L63.2383 32.7509L66.9004 34.36ZM72.7324 26.08L75.4756 28.9912L75.4773 28.9896L72.7324 26.08ZM81.6604 20.536L80.2386 16.7972L81.6604 20.536ZM103.98 20.536L102.541 24.268L102.55 24.2714L102.559 24.2748L103.98 20.536ZM112.836 26.08L110.064 28.9633L110.078 28.9773L110.093 28.9912L112.836 26.08ZM118.668 34.36L115.006 35.9691L115.016 35.9922L115.027 36.0152L118.668 34.36ZM118.668 55.312L115.018 53.6773L115.012 53.6901L115.006 53.7029L118.668 55.312ZM112.836 63.592L115.58 66.5032L112.836 63.592ZM103.98 69.064L102.559 65.3252L102.55 65.3286L102.541 65.332L103.98 69.064ZM98.1484 58.192L96.6628 54.4781L96.6441 54.4856L96.6254 54.4933L98.1484 58.192ZM102.468 55.312L99.5871 52.5374L99.585 52.5396L102.468 55.312ZM105.348 50.704L101.641 49.2012L101.624 49.2446L101.607 49.2884L105.348 50.704ZM105.348 38.896L101.607 40.3116L101.631 40.3734L101.656 40.4345L105.348 38.896ZM102.468 34.36L99.5333 37.0776L99.5856 37.1341L99.6399 37.1884L102.468 34.36ZM98.1484 31.408L96.6254 35.1067L96.6441 35.1144L96.6628 35.1219L98.1484 31.408ZM87.4204 31.408L85.9348 27.6941L85.9161 27.7016L85.8974 27.7093L87.4204 31.408ZM83.1004 34.36L80.2191 31.5854L80.217 31.5876L83.1004 34.36ZM80.2204 38.896L76.5134 37.3932L76.5027 37.4196L76.4924 37.4462L80.2204 38.896ZM80.2204 50.704L76.4792 52.1196L76.4958 52.1634L76.5134 52.2068L80.2204 50.704ZM83.1004 55.312L80.1653 58.0296L80.2176 58.0861L80.2719 58.1404L83.1004 55.312ZM87.4204 58.192L85.8974 61.8907L85.9161 61.8984L85.9348 61.9059L87.4204 58.192ZM92.8204 67.008C89.2229 67.008 85.9904 66.4312 83.0822 65.3252L80.2386 72.8028C84.1463 74.2888 88.3538 75.008 92.8204 75.008V67.008ZM83.0822 65.3252C80.1273 64.2015 77.5964 62.6413 75.4478 60.6549L70.017 66.5291C72.9564 69.2467 76.3775 71.3345 80.2386 72.8028L83.0822 65.3252ZM75.5048 60.7087C73.3856 58.6709 71.7439 56.3198 70.5625 53.6309L63.2383 56.8491C64.8408 60.4962 67.0872 63.7131 69.9599 66.4753L75.5048 60.7087ZM70.5625 53.6309C69.4139 51.0169 68.8124 48.0916 68.8124 44.8H60.8124C60.8124 49.0924 61.6029 53.1271 63.2383 56.8491L70.5625 53.6309ZM68.8124 44.8C68.8124 41.5084 69.4139 38.5831 70.5625 35.9691L63.2383 32.7509C61.6029 36.4729 60.8124 40.5076 60.8124 44.8H68.8124ZM70.5625 35.9691C71.7406 33.2878 73.3737 30.9718 75.4756 28.9912L69.9892 23.1688C67.0991 25.8922 64.8442 29.0962 63.2383 32.7509L70.5625 35.9691ZM75.4773 28.9896C77.6228 26.9655 80.1441 25.3921 83.0822 24.2748L80.2386 16.7972C76.3606 18.2719 72.93 20.3945 69.9875 23.1704L75.4773 28.9896ZM83.0822 24.2748C85.9904 23.1688 89.2229 22.592 92.8204 22.592V14.592C88.3538 14.592 84.1463 15.3112 80.2386 16.7972L83.0822 24.2748ZM92.8204 22.592C96.473 22.592 99.697 23.1711 102.541 24.268L105.42 16.804C101.544 15.3089 97.3277 14.592 92.8204 14.592V22.592ZM102.559 24.2748C105.491 25.3897 107.976 26.9561 110.064 28.9633L115.609 23.1967C112.704 20.4039 109.286 18.2743 105.402 16.7972L102.559 24.2748ZM110.093 28.9912C112.195 30.9718 113.828 33.2878 115.006 35.9691L122.33 32.7509C120.725 29.0962 118.47 25.8922 115.58 23.1688L110.093 28.9912ZM115.027 36.0152C116.21 38.6182 116.828 41.5272 116.828 44.8H124.828C124.828 40.4888 124.007 36.4378 122.31 32.7048L115.027 36.0152ZM116.828 44.8C116.828 48.0721 116.21 51.0138 115.018 53.6773L122.319 56.9467C124.007 53.1782 124.828 49.1119 124.828 44.8H116.828ZM115.006 53.7029C113.828 56.3842 112.195 58.7002 110.093 60.6808L115.58 66.5032C118.47 63.7798 120.725 60.5758 122.33 56.9211L115.006 53.7029ZM110.093 60.6808C108.003 62.6506 105.507 64.2038 102.559 65.3252L105.402 72.8028C109.269 71.3322 112.678 69.2374 115.58 66.5032L110.093 60.6808ZM102.541 65.332C99.697 66.4289 96.473 67.008 92.8204 67.008V75.008C97.3277 75.008 101.544 74.2911 105.42 72.796L102.541 65.332ZM92.8204 63.2C95.2166 63.2 97.5153 62.7785 99.6714 61.8907L96.6254 54.4933C95.5175 54.9495 94.2641 55.2 92.8204 55.2V63.2ZM99.6339 61.9059C101.817 61.0326 103.74 59.7604 105.352 58.0844L99.585 52.5396C98.7966 53.3596 97.8397 54.0074 96.6628 54.4781L99.6339 61.9059ZM105.35 58.0866C106.994 56.379 108.237 54.3736 109.09 52.1196L101.607 49.2884C101.116 50.5864 100.439 51.653 99.5871 52.5374L105.35 58.0866ZM109.055 52.2068C109.992 49.8965 110.428 47.4099 110.428 44.8H102.428C102.428 46.5101 102.145 47.9595 101.641 49.2012L109.055 52.2068ZM110.428 44.8C110.428 42.1572 109.997 39.6523 109.041 37.3575L101.656 40.4345C102.14 41.5957 102.428 43.0268 102.428 44.8H110.428ZM109.09 37.4804C108.232 35.215 106.976 33.2103 105.297 31.5316L99.6399 37.1884C100.457 38.0057 101.12 39.025 101.607 40.3116L109.09 37.4804ZM105.403 31.6424C103.79 29.9 101.851 28.581 99.6339 27.6941L96.6628 35.1219C97.8056 35.579 98.7466 36.228 99.5333 37.0776L105.403 31.6424ZM99.6714 27.7093C97.5153 26.8215 95.2166 26.4 92.8204 26.4V34.4C94.2641 34.4 95.5175 34.6505 96.6254 35.1067L99.6714 27.7093ZM92.8204 26.4C90.423 26.4 88.1157 26.8218 85.9348 27.6941L88.9059 35.1219C90.0851 34.6502 91.3778 34.4 92.8204 34.4V26.4ZM85.8974 27.7093C83.7434 28.5962 81.8434 29.8987 80.2191 31.5854L85.9817 37.1346C86.8534 36.2293 87.8333 35.5638 88.9434 35.1067L85.8974 27.7093ZM80.217 31.5876C78.6284 33.2398 77.4042 35.1959 76.5134 37.3932L83.9273 40.3988C84.4765 39.0441 85.1724 37.9762 85.9837 37.1324L80.217 31.5876ZM76.4924 37.4462C75.6099 39.7155 75.2124 42.1886 75.2124 44.8H83.2124C83.2124 42.9954 83.4869 41.5325 83.9484 40.3458L76.4924 37.4462ZM75.2124 44.8C75.2124 47.3778 75.6142 49.8335 76.4792 52.1196L83.9615 49.2884C83.4825 48.0225 83.2124 46.5422 83.2124 44.8H75.2124ZM76.5134 52.2068C77.3997 54.3929 78.6098 56.3496 80.1653 58.0296L86.0354 52.5944C85.191 51.6824 84.4811 50.5671 83.9273 49.2012L76.5134 52.2068ZM80.2719 58.1404C81.8934 59.7619 83.7771 61.0176 85.8974 61.8907L88.9434 54.4933C87.7997 54.0224 86.8034 53.3581 85.9288 52.4836L80.2719 58.1404ZM85.9348 61.9059C88.1157 62.7782 90.423 63.2 92.8204 63.2V55.2C91.3778 55.2 90.0851 54.9498 88.9059 54.4781L85.9348 61.9059ZM145.287 69.136L143.865 72.8748L143.888 72.8836L143.912 72.8921L145.287 69.136ZM136.431 63.664L133.66 66.5484L133.674 66.5619L133.688 66.5752L136.431 63.664ZM130.671 55.384L127 56.9729L127.004 56.983L127.009 56.9931L130.671 55.384ZM130.671 34.288L134.333 35.8971L134.338 35.887L134.342 35.8769L130.671 34.288ZM136.503 25.936L133.76 23.0248V23.0248L136.503 25.936ZM145.359 20.536L146.734 24.2921L146.749 24.2867L146.764 24.2813L145.359 20.536ZM169.407 20.968L170.966 17.2841V17.2841L169.407 20.968ZM178.695 27.808L181.379 30.7741L184.208 28.214L181.784 25.2669L178.695 27.808ZM169.623 36.016L166.684 38.7291L169.37 41.6391L172.307 38.9821L169.623 36.016ZM164.007 31.84L162.253 35.4351L162.305 35.4605L162.358 35.4844L164.007 31.84ZM146.943 34.36L149.771 37.1884L149.798 37.1617L149.824 37.1346L146.943 34.36ZM143.991 38.896L140.284 37.3932L140.273 37.4196L140.263 37.4462L143.991 38.896ZM143.991 50.632L140.25 52.0476L140.266 52.0914L140.284 52.1348L143.991 50.632ZM146.943 55.24L144.062 58.0146L144.088 58.0417L144.115 58.0684L146.943 55.24ZM151.407 58.192L149.869 61.8843L149.93 61.9097L149.991 61.9331L151.407 58.192ZM163.431 58.192L164.696 61.9867L164.736 61.9733L164.776 61.959L163.431 58.192ZM169.551 54.592L172.677 52.096L170.157 48.941L167.026 51.4897L169.551 54.592ZM177.543 64.6L179.873 67.8513L183.298 65.3967L180.669 62.104L177.543 64.6ZM167.535 69.352L168.653 73.1925L167.535 69.352ZM164.943 62.728H160.943V66.1776L164.355 66.6846L164.943 62.728ZM164.943 43.72V39.72H160.943V43.72H164.943ZM177.543 43.72H181.543V39.72H177.543V43.72ZM177.543 64.6L176.955 68.5566L181.543 69.2382V64.6H177.543ZM156.375 67.008C152.814 67.008 149.589 66.4515 146.662 65.3799L143.912 72.8921C147.801 74.3165 151.968 75.008 156.375 75.008V67.008ZM146.709 65.3972C143.76 64.2758 141.265 62.7226 139.174 60.7528L133.688 66.5752C136.589 69.3094 139.998 71.4042 143.865 72.8748L146.709 65.3972ZM139.202 60.7796C137.139 58.7974 135.519 56.4731 134.333 53.7749L127.009 56.9931C128.607 60.6309 130.827 63.8266 133.66 66.5484L139.202 60.7796ZM134.342 53.7951C133.187 51.1269 132.583 48.1462 132.583 44.8H124.583C124.583 49.1338 125.371 53.2091 127 56.9729L134.342 53.7951ZM132.583 44.8C132.583 41.4529 133.187 38.5048 134.333 35.8971L127.009 32.6789C125.371 36.4072 124.583 40.4671 124.583 44.8H132.583ZM134.342 35.8769C135.523 33.149 137.155 30.8178 139.246 28.8472L133.76 23.0248C130.859 25.7582 128.603 28.995 127 32.6991L134.342 35.8769ZM139.246 28.8472C141.326 26.8878 143.805 25.3649 146.734 24.2921L143.984 16.7799C140.097 18.2031 136.673 20.2802 133.76 23.0248L139.246 28.8472ZM146.764 24.2813C149.725 23.1706 153.012 22.592 156.663 22.592V14.592C152.154 14.592 147.905 15.3094 143.955 16.7907L146.764 24.2813ZM156.663 22.592C160.969 22.592 164.674 23.3087 167.848 24.6519L170.966 17.2841C166.652 15.4593 161.861 14.592 156.663 14.592V22.592ZM167.848 24.6519C171.031 25.9984 173.591 27.8996 175.606 30.3491L181.784 25.2669C178.903 21.7644 175.271 19.1056 170.966 17.2841L167.848 24.6519ZM176.011 24.8419L166.939 33.0499L172.307 38.9821L181.379 30.7741L176.011 24.8419ZM172.562 33.3029C170.525 31.0962 168.228 29.3593 165.656 28.1956L162.358 35.4844C163.818 36.1447 165.265 37.1917 166.684 38.7291L172.562 33.3029ZM165.761 28.2449C163.185 26.9885 160.366 26.4 157.383 26.4V34.4C159.296 34.4 160.893 34.7715 162.253 35.4351L165.761 28.2449ZM157.383 26.4C154.805 26.4 152.349 26.8019 150.063 27.6669L152.895 35.1491C154.161 34.6701 155.641 34.4 157.383 34.4V26.4ZM150.063 27.6669C147.765 28.5366 145.743 29.8391 144.062 31.5854L149.824 37.1346C150.639 36.2889 151.641 35.6234 152.895 35.1491L150.063 27.6669ZM144.115 31.5316C142.457 33.1896 141.188 35.1639 140.284 37.3932L147.698 40.3988C148.234 39.0761 148.934 38.0264 149.771 37.1884L144.115 31.5316ZM140.263 37.4462C139.38 39.7155 138.983 42.1886 138.983 44.8H146.983C146.983 42.9954 147.258 41.5325 147.719 40.3458L140.263 37.4462ZM138.983 44.8C138.983 47.3415 139.389 49.7713 140.25 52.0476L147.732 49.2164C147.249 47.9407 146.983 46.4824 146.983 44.8H138.983ZM140.284 52.1348C141.183 54.3524 142.437 56.3277 144.062 58.0146L149.824 52.4654C148.953 51.5603 148.239 50.4636 147.698 49.1292L140.284 52.1348ZM144.115 58.0684C145.754 59.7079 147.688 60.9757 149.869 61.8843L152.945 54.4997C151.67 53.9683 150.628 53.2681 149.771 52.4116L144.115 58.0684ZM149.991 61.9331C152.268 62.7944 154.697 63.2 157.239 63.2V55.2C155.557 55.2 154.098 54.9336 152.823 54.4509L149.991 61.9331ZM157.239 63.2C159.784 63.2 162.275 62.7938 164.696 61.9867L162.166 54.3973C160.555 54.9342 158.918 55.2 157.239 55.2V63.2ZM164.776 61.959C167.31 61.054 169.742 59.5942 172.076 57.6942L167.026 51.4897C165.232 52.9498 163.584 53.89 162.086 54.425L164.776 61.959ZM166.425 57.088L174.417 67.096L180.669 62.104L172.677 52.096L166.425 57.088ZM175.213 61.3487C172.74 63.1208 169.824 64.5195 166.417 65.5115L168.653 73.1925C172.83 71.9765 176.586 70.2072 179.873 67.8513L175.213 61.3487ZM166.417 65.5115C162.958 66.5184 159.615 67.008 156.375 67.008V75.008C160.431 75.008 164.528 74.3936 168.653 73.1925L166.417 65.5115ZM168.943 62.728V43.72H160.943V62.728H168.943ZM164.943 47.72H177.543V39.72H164.943V47.72ZM173.543 43.72V64.6H181.543V43.72H173.543ZM178.131 60.6434L165.531 58.7714L164.355 66.6846L176.955 68.5566L178.131 60.6434ZM203.573 69.136L202.151 72.8748L202.175 72.8836L202.198 72.8921L203.573 69.136ZM194.717 63.664L191.946 66.5484L191.96 66.5619L191.974 66.5752L194.717 63.664ZM188.957 55.384L185.286 56.9729L185.291 56.983L185.295 56.9931L188.957 55.384ZM188.957 34.288L192.619 35.8971L192.624 35.887L192.628 35.8769L188.957 34.288ZM194.789 25.936L192.046 23.0248V23.0248L194.789 25.936ZM203.645 20.536L205.021 24.2921L205.035 24.2867L205.05 24.2813L203.645 20.536ZM227.693 20.968L229.252 17.2841V17.2841L227.693 20.968ZM236.981 27.808L239.665 30.7741L242.495 28.214L240.07 25.2669L236.981 27.808ZM227.909 36.016L224.97 38.7291L227.656 41.6391L230.593 38.9821L227.909 36.016ZM222.293 31.84L220.54 35.4351L220.592 35.4605L220.645 35.4844L222.293 31.84ZM205.229 34.36L208.058 37.1884L208.084 37.1617L208.111 37.1346L205.229 34.36ZM202.277 38.896L198.57 37.3932L198.56 37.4196L198.549 37.4462L202.277 38.896ZM202.277 50.632L198.536 52.0476L198.553 52.0914L198.57 52.1348L202.277 50.632ZM205.229 55.24L202.348 58.0146L202.374 58.0417L202.401 58.0684L205.229 55.24ZM209.693 58.192L208.155 61.8843L208.216 61.9097L208.278 61.9331L209.693 58.192ZM221.717 58.192L222.982 61.9867L223.023 61.9733L223.063 61.959L221.717 58.192ZM227.837 54.592L230.963 52.096L228.443 48.941L225.312 51.4897L227.837 54.592ZM235.829 64.6L238.159 67.8513L241.584 65.3967L238.955 62.104L235.829 64.6ZM225.821 69.352L226.939 73.1925L225.821 69.352ZM223.229 62.728H219.229V66.1776L222.641 66.6846L223.229 62.728ZM223.229 43.72V39.72H219.229V43.72H223.229ZM235.829 43.72H239.829V39.72H235.829V43.72ZM235.829 64.6L235.241 68.5566L239.829 69.2382V64.6H235.829ZM214.661 67.008C211.101 67.008 207.875 66.4515 204.949 65.3799L202.198 72.8921C206.087 74.3165 210.254 75.008 214.661 75.008V67.008ZM204.995 65.3972C202.046 64.2758 199.551 62.7226 197.46 60.7528L191.974 66.5752C194.876 69.3094 198.284 71.4042 202.151 72.8748L204.995 65.3972ZM197.489 60.7796C195.425 58.7974 193.805 56.4731 192.619 53.7749L185.295 56.9931C186.894 60.6309 189.113 63.8266 191.946 66.5484L197.489 60.7796ZM192.628 53.7951C191.473 51.1269 190.869 48.1462 190.869 44.8H182.869C182.869 49.1338 183.657 53.2091 185.286 56.9729L192.628 53.7951ZM190.869 44.8C190.869 41.4529 191.473 38.5048 192.619 35.8971L185.295 32.6789C183.657 36.4072 182.869 40.4671 182.869 44.8H190.869ZM192.628 35.8769C193.809 33.149 195.441 30.8178 197.532 28.8472L192.046 23.0248C189.145 25.7582 186.89 28.995 185.286 32.6991L192.628 35.8769ZM197.532 28.8472C199.612 26.8878 202.091 25.3649 205.021 24.2921L202.27 16.7799C198.383 18.2031 194.959 20.2802 192.046 23.0248L197.532 28.8472ZM205.05 24.2813C208.012 23.1706 211.298 22.592 214.949 22.592V14.592C210.44 14.592 206.191 15.3094 202.241 16.7907L205.05 24.2813ZM214.949 22.592C219.255 22.592 222.96 23.3087 226.135 24.6519L229.252 17.2841C224.939 15.4593 220.147 14.592 214.949 14.592V22.592ZM226.135 24.6519C229.317 25.9984 231.877 27.8996 233.892 30.3491L240.07 25.2669C237.189 21.7644 233.557 19.1056 229.252 17.2841L226.135 24.6519ZM234.298 24.8419L225.226 33.0499L230.593 38.9821L239.665 30.7741L234.298 24.8419ZM230.848 33.3029C228.812 31.0962 226.514 29.3593 223.942 28.1956L220.645 35.4844C222.104 36.1447 223.551 37.1917 224.97 38.7291L230.848 33.3029ZM224.047 28.2449C221.471 26.9885 218.653 26.4 215.669 26.4V34.4C217.582 34.4 219.179 34.7715 220.54 35.4351L224.047 28.2449ZM215.669 26.4C213.091 26.4 210.636 26.8019 208.35 27.6669L211.181 35.1491C212.447 34.6701 213.927 34.4 215.669 34.4V26.4ZM208.35 27.6669C206.051 28.5366 204.03 29.8391 202.348 31.5854L208.111 37.1346C208.925 36.2889 209.928 35.6234 211.181 35.1491L208.35 27.6669ZM202.401 31.5316C200.743 33.1896 199.474 35.1639 198.57 37.3932L205.984 40.3988C206.52 39.0761 207.22 38.0264 208.058 37.1884L202.401 31.5316ZM198.549 37.4462C197.667 39.7155 197.269 42.1886 197.269 44.8H205.269C205.269 42.9954 205.544 41.5325 206.005 40.3458L198.549 37.4462ZM197.269 44.8C197.269 47.3415 197.675 49.7713 198.536 52.0476L206.018 49.2164C205.536 47.9407 205.269 46.4824 205.269 44.8H197.269ZM198.57 52.1348C199.469 54.3524 200.724 56.3277 202.348 58.0146L208.111 52.4654C207.239 51.5603 206.525 50.4636 205.984 49.1292L198.57 52.1348ZM202.401 58.0684C204.04 59.7079 205.974 60.9757 208.155 61.8843L211.232 54.4997C209.956 53.9683 208.914 53.2681 208.058 52.4116L202.401 58.0684ZM208.278 61.9331C210.554 62.7944 212.984 63.2 215.525 63.2V55.2C213.843 55.2 212.385 54.9336 211.109 54.4509L208.278 61.9331ZM215.525 63.2C218.07 63.2 220.561 62.7938 222.982 61.9867L220.452 54.3973C218.842 54.9342 217.205 55.2 215.525 55.2V63.2ZM223.063 61.959C225.596 61.054 228.028 59.5942 230.362 57.6942L225.312 51.4897C223.518 52.9498 221.87 53.89 220.372 54.425L223.063 61.959ZM224.712 57.088L232.704 67.096L238.955 62.104L230.963 52.096L224.712 57.088ZM233.499 61.3487C231.027 63.1208 228.11 64.5195 224.703 65.5115L226.939 73.1925C231.116 71.9765 234.872 70.2072 238.159 67.8513L233.499 61.3487ZM224.703 65.5115C221.245 66.5184 217.901 67.008 214.661 67.008V75.008C218.717 75.008 222.814 74.3936 226.939 73.1925L224.703 65.5115ZM227.229 62.728V43.72H219.229V62.728H227.229ZM223.229 47.72H235.829V39.72H223.229V47.72ZM231.829 43.72V64.6H239.829V43.72H231.829ZM236.417 60.6434L223.817 58.7714L222.641 66.6846L235.241 68.5566L236.417 60.6434ZM260.492 70H256.492V74H260.492V70ZM260.492 48.688L264.222 47.2458L256.492 48.688H260.492ZM263.803 57.256L260.371 59.3101L267.534 55.8138L263.803 57.256ZM241.268 19.6V15.6H234.212L237.835 21.6541L241.268 19.6ZM256.315 19.6L259.751 17.5514L258.587 15.6H256.315V19.6ZM272.587 46.888V50.888H279.63L276.023 44.8394L272.587 46.888ZM263.876 46.888L260.444 44.8327L256.817 50.888H263.876V46.888ZM280.22 19.6V15.6H277.953L276.788 17.5447L280.22 19.6ZM294.044 19.6L297.479 21.6493L301.087 15.6H294.044V19.6ZM271.579 57.256L267.828 55.8688L275.015 59.3053L271.579 57.256ZM274.747 48.688H278.747L270.996 47.3008L274.747 48.688ZM274.747 70V74H278.747V70H274.747ZM264.492 70V48.688H256.492V70H264.492ZM256.761 50.1302L260.073 58.6982L267.534 55.8138L264.222 47.2458L256.761 50.1302ZM267.236 55.2019L244.7 17.5459L237.835 21.6541L260.371 59.3101L267.236 55.2019ZM241.268 23.6H256.315V15.6H241.268V23.6ZM252.88 21.6486L269.152 48.9366L276.023 44.8394L259.751 17.5514L252.88 21.6486ZM272.587 42.888H263.876V50.888H272.587V42.888ZM267.307 48.9433L283.651 21.6553L276.788 17.5447L260.444 44.8327L267.307 48.9433ZM280.22 23.6H294.044V15.6H280.22V23.6ZM290.608 17.5507L268.144 55.2067L275.015 59.3053L297.479 21.6493L290.608 17.5507ZM275.331 58.6432L278.499 50.0752L270.996 47.3008L267.828 55.8688L275.331 58.6432ZM270.747 48.688V70H278.747V48.688H270.747ZM274.747 66H260.492V74H274.747V66ZM318.335 70L314.675 68.3847L312.196 74H318.335V70ZM340.582 19.6V15.6H337.976L336.923 17.9847L340.582 19.6ZM354.622 19.6L358.28 17.9803L357.226 15.6H354.622V19.6ZM376.943 70V74H383.089L380.6 68.3803L376.943 70ZM362.111 70L358.398 71.4898L359.406 74H362.111V70ZM344.686 26.584V22.584H338.771L340.974 28.0738L344.686 26.584ZM350.302 26.584L354.015 28.0738L356.218 22.584H350.302V26.584ZM332.879 70V74H335.583L336.591 71.4898L332.879 70ZM330.503 60.208L326.726 58.8889L324.868 64.208H330.503V60.208ZM334.174 49.696V45.696H331.335L330.398 48.3769L334.174 49.696ZM358.798 49.696L362.575 48.3769L361.638 45.696H358.798V49.696ZM362.47 60.208V64.208H368.105L366.247 58.8889L362.47 60.208ZM321.994 71.6153L344.242 21.2153L336.923 17.9847L314.675 68.3847L321.994 71.6153ZM340.582 23.6H354.622V15.6H340.582V23.6ZM350.965 21.2197L373.285 71.6197L380.6 68.3803L358.28 17.9803L350.965 21.2197ZM376.943 66H362.111V74H376.943V66ZM365.823 68.5102L348.399 25.0942L340.974 28.0738L358.398 71.4898L365.823 68.5102ZM344.686 30.584H350.302V22.584H344.686V30.584ZM346.59 25.0942L329.166 68.5102L336.591 71.4898L354.015 28.0738L346.59 25.0942ZM332.879 66H318.335V74H332.879V66ZM334.279 61.5271L337.951 51.0151L330.398 48.3769L326.726 58.8889L334.279 61.5271ZM334.174 53.696H358.798V45.696H334.174V53.696ZM355.022 51.0151L358.694 61.5271L366.247 58.8889L362.575 48.3769L355.022 51.0151ZM362.47 56.208H330.503V64.208H362.47V56.208ZM383.864 70H379.864V74H383.864V70ZM383.864 19.6V15.6H379.864V19.6H383.864ZM398.12 19.6H402.12V15.6H398.12V19.6ZM398.12 70V74H402.12V70H398.12ZM387.864 70V19.6H379.864V70H387.864ZM383.864 23.6H398.12V15.6H383.864V23.6ZM394.12 19.6V70H402.12V19.6H394.12ZM398.12 66H383.864V74H398.12V66Z" fill="black" mask="url(#path-1-outside-1_2009_31)"/>
<defs>
<linearGradient id="paint0_linear_2009_31" x1="0" y1="44" x2="404" y2="44" gradientUnits="userSpaceOnUse">
<stop stop-color="#FF7C02"/>
<stop offset="1" stop-color="#FFD600"/>
</linearGradient>
</defs>
</svg>
