<svg width="72" height="72" viewBox="0 0 72 72" fill="none" xmlns="http://www.w3.org/2000/svg">
<path d="M28.7133 71.5544C22.4765 70.2663 16.665 67.3322 12.1292 63.2531C0.435324 52.7692 -3.21459 36.274 2.98672 21.5678C4.51047 17.9539 6.99099 14.3042 10.0385 11.1196L12.7316 8.3287L12.9088 24.7166C13.086 40.4246 13.1214 41.2118 13.8656 43.1798C15.3539 47.1515 16.9131 49.6562 19.6417 52.3756C26.658 59.4245 36.9344 61.1778 45.6872 56.8483C53.9083 52.7692 59.082 43.8596 58.4796 34.8427C58.0898 28.7956 56.0699 24.3588 51.7113 19.9576C48.4157 16.63 44.5532 14.4473 40.3717 13.5528C36.084 12.6582 36.2966 12.5151 36.2966 16.1648V19.3136L38.6354 19.743C47.707 21.4247 53.7311 30.4416 51.853 39.5301C51.2506 42.4284 49.904 45.0046 47.7424 47.3662C44.4469 50.9443 39.8048 52.6618 35.7651 52.6618C29.0676 52.6618 23.5042 48.7974 20.7756 43.144C20.7756 43.144 20.0669 41.5338 19.8543 40.5319C18.5077 34.628 19.3582 22.2477 19.3582 22.2477L19.2519 4.1065L20.3149 3.56978C20.8819 3.24774 21.4489 3.03306 21.5552 3.03306C21.6615 3.03306 21.7678 11.3701 21.8387 21.5678C21.8387 21.5678 20.563 34.9143 22.1576 40.031C22.3702 40.7824 22.8309 42.0348 22.8309 42.0348C24.2129 44.8973 26.4454 47.4377 29.3511 48.8332C31.5482 49.8709 32.6821 50.3718 35.9422 50.3718C38.0684 50.3718 39.9465 49.692 42.1435 48.6901C44.6949 47.5093 47.6361 44.3606 48.7347 41.4623C51.7113 33.5188 47.5653 25.0028 39.5213 22.6055C36.2257 21.6394 36.2966 21.5678 36.2966 25.1817V28.3305L37.8558 28.7599C43.5256 30.2985 45.2619 37.9915 40.797 41.9274C39.2378 43.3229 37.8203 43.9312 35.3398 43.9312C32.6821 43.9312 30.1307 42.321 28.8196 39.8163C28.04 38.3135 27.9691 36.918 27.9691 36.274C27.9691 30.2985 27.8274 19.4925 27.8274 19.4925L27.7211 0.993519L28.5361 0.778828C28.9968 0.671484 30.804 0.385234 32.5758 0.170546C38.5645 -0.616645 47.4235 1.38711 53.3768 4.82213C61.4916 9.50949 67.6221 17.5603 70.1735 26.8635C71.0594 30.048 71.1657 31.0141 71.1657 36.1308C71.1657 41.2476 71.0594 42.2137 70.2089 45.3624C66.7362 58.029 57.8771 67.0459 45.2265 70.9103C42.5688 71.7333 41.3285 71.8764 36.6155 71.9838C32.8239 72.0196 30.3788 71.9122 28.7133 71.5544Z" fill="#C60C30"/>
</svg>
