<svg width="56" height="72" viewBox="0 0 56 72" fill="none" xmlns="http://www.w3.org/2000/svg">
<g clip-path="url(#clip0_191_10505)">
<path d="M27.4843 0C28.8451 5.1501 33.2515 9.74673 38.0132 14.516L39.0229 15.5256C46.5481 23.0451 54.9702 31.5875 54.9702 44.3338C54.9702 54.1533 49.7315 63.2268 41.2276 68.1366C32.7237 73.0463 22.2465 73.0463 13.7425 68.1366C5.23863 63.2268 0 54.1533 0 44.3338C0 31.8441 8.08585 23.3919 15.4887 15.9826L15.9457 15.5256L16.1734 15.2981C21.2264 10.2465 26.0491 5.43102 27.4843 0ZM215.479 41.116C217.144 50.1047 211.687 58.882 202.888 61.3638C194.584 63.386 190.843 56.9372 190.163 55.2435C190.092 55.0677 190.027 54.8759 189.738 54.8796C189.436 54.883 189.403 55.1939 189.4 55.2382L189.399 55.2435L189.397 59.7458L189.395 59.7434V71.7642H180.397V44.3375C180.398 35.1957 187.365 27.5607 196.468 26.7247C205.572 25.8887 213.813 32.1273 215.479 41.116ZM27.4838 41.2245C27.4838 41.2245 25.7581 43.1011 23.9507 45.1082L23.6981 45.389C22.3922 46.842 21.0836 48.3207 20.3884 49.1708C18.9004 50.9146 18.0672 53.1227 18.0323 55.4147C18.0323 57.9217 19.0282 60.3261 20.8009 62.0989C22.5737 63.8716 24.9781 64.8675 27.4851 64.8675C32.7058 64.8675 36.9379 60.6353 36.9379 55.4147C36.9582 53.1038 36.1122 50.8691 34.5666 49.1509C33.8662 48.37 32.6152 46.9706 31.3573 45.5625L31.1058 45.281C29.2631 43.2182 27.4838 41.2245 27.4838 41.2245ZM238.497 26.7251C247.509 27.5529 254.427 35.0442 254.565 44.0639L254.567 44.3376V60.7753H245.57L245.565 55.2436C245.565 55.2436 245.551 54.8834 245.227 54.8785C244.936 54.876 244.873 55.0678 244.802 55.2436C244.122 56.9361 240.38 63.3861 232.076 61.3627C223.278 58.8806 217.821 50.1035 219.487 41.1152C221.153 32.1269 229.394 25.8889 238.497 26.7251ZM177.218 27.2856L177.215 44.0884C177.215 53.7916 170.884 61.6557 161.182 61.6557C151.574 61.6557 145.365 53.9481 145.242 44.379L145.24 44.0884L145.242 27.3015H154.199V44.0884C154.199 48.9986 156.324 52.971 161.237 52.971C166.088 52.971 168.201 49.0938 168.251 44.2655L168.252 44.0884L168.237 27.2856H177.218ZM267.13 17.0466V60.7889H258.194V17.0466H267.13ZM137.937 26.9203C139.133 27.1915 140.288 27.6147 141.376 28.1794L141.67 28.3369V38.5151L141.664 38.5088C141.647 38.4924 141.596 38.4439 141.509 38.3703L141.437 38.3106C140.858 37.8395 139.18 36.6626 136.117 35.9372C128.483 34.1323 124.508 41.0583 124.429 42.6307L124.428 42.6767V60.7605H115.454V27.3514H123.46L124.416 33.2056C124.416 33.2056 124.447 33.5096 124.729 33.5157C125.07 33.5243 125.074 33.4071 125.173 33.2056C125.376 32.7952 130.234 25.1424 137.937 26.9203ZM88.0892 17.029C101.351 17.029 111.409 19.4628 111.409 38.8666C111.409 58.0848 100.755 60.7054 87.3443 60.7054H77.1369V17.029H88.0892ZM236.872 35.3855C233.25 35.3853 229.985 37.5669 228.599 40.913C227.213 44.259 227.979 48.1106 230.54 50.6714C233.101 53.2322 236.953 53.9979 240.299 52.6114C243.645 51.225 245.826 47.9594 245.825 44.3376C245.823 39.3937 241.816 35.3865 236.872 35.3855ZM198.093 35.3854C193.149 35.3868 189.142 39.394 189.141 44.3375C189.14 47.9594 191.321 51.225 194.667 52.6114C198.013 53.9978 201.865 53.2319 204.426 50.6708C206.987 48.1097 207.753 44.258 206.367 40.912C204.98 37.5659 201.715 35.3846 198.093 35.3854ZM90.0274 24.6004L86.1733 24.6001V53.127L89.8782 53.2223C97.4773 53.2223 102.372 52.5311 102.372 38.8666C102.372 25.8949 98.1372 24.6245 90.0274 24.6004ZM27.4841 15.8127C27.4841 15.8127 27.483 15.8139 27.4808 15.8161L27.4039 15.893C27.3412 15.9556 27.2439 16.0528 27.1189 16.1778L26.3923 16.904C26.1676 17.1287 25.9192 17.3769 25.6582 17.6378L24.3776 18.9183C24.1433 19.1525 23.9126 19.3833 23.6922 19.6037L23.167 20.1291C23.134 20.1622 23.1014 20.1948 23.0693 20.2269L22.5505 20.7462C22.5002 20.7966 22.4525 20.8443 22.4079 20.889L22.3594 20.9374C21.3081 21.9841 19.1895 23.9398 21.7402 26.696C23.0655 28.1282 26.983 32.2483 31.0557 36.5905L31.5995 37.1705C36.4068 42.3022 41.2793 47.5899 42.2356 49.005C43.0574 50.2213 43.1762 50.791 44.2881 50.7505C44.9119 50.7278 45.3741 49.984 45.5778 49.5384C46.5321 47.4513 48.1506 41.1269 43.4543 33.8182C40.2139 28.7751 33.8419 22.1191 30.2026 18.477L29.8932 18.168C28.4323 16.7123 27.4841 15.8127 27.4841 15.8127ZM15.3156 28.546C3.7771 39.9606 9.99675 50.6811 11.682 50.7383C11.8567 50.7443 12.1477 50.7653 12.3469 50.2095C13.3122 47.5167 21.078 39.7291 22.9 37.8604C23.0456 37.744 23.1344 37.571 23.1441 37.3849C23.1538 37.1988 23.0836 37.0174 22.951 36.8865L15.3156 28.546Z" fill="#009DDE"/>
</g>
<defs>
<clipPath id="clip0_191_10505">
<rect width="55.3043" height="72" fill="white"/>
</clipPath>
</defs>
</svg>
