<svg width="73" height="72" viewBox="0 0 73 72" fill="none" xmlns="http://www.w3.org/2000/svg">
<path d="M12.8811 36.2402L11.5353 34.8944C7.20959 30.5687 5.95993 24.5126 7.49797 19.0333C3.17222 18.072 0 14.2269 0 9.61278C0 4.32575 4.32575 0 9.61278 0C14.4192 0 18.3604 3.4606 19.1294 8.07474C24.3203 6.82508 29.9919 8.26699 34.0293 12.3044L34.606 12.8811L27.4926 19.9946L26.9158 19.4178C24.6087 17.1108 20.8597 17.1108 18.5527 19.4178C16.2456 21.7249 16.2456 25.4739 18.5527 27.7809L34.5099 43.7382L27.3964 50.8516L19.8985 43.3537L12.8811 36.2402Z" fill="#7AC143"/>
<path d="M20.8596 28.3573L28.3576 20.8593L35.4711 13.7459L36.8168 12.4001C41.0465 8.17044 47.1986 6.82465 52.5818 8.3627C53.2547 3.65243 57.2921 0.0957031 62.0985 0.0957031C67.3855 0.0957031 71.7112 4.42146 71.7112 9.70849C71.7112 14.611 68.0584 18.6484 63.3481 19.2251C64.8862 24.6083 63.5404 30.6644 59.3108 34.894L58.734 35.4708L51.8128 28.3573L52.3895 27.7805C54.6966 25.4735 54.6966 21.7245 52.3895 19.4174C50.0825 17.1103 46.3335 17.1103 44.0264 19.4174L42.6806 20.7632L35.5672 27.8766L28.0692 35.3746L20.8596 28.3573Z" fill="#F9A541"/>
<path d="M52.8702 64.2136C47.3909 65.8478 41.2387 64.5981 36.913 60.2724L36.3362 59.6956L43.4496 52.5821L44.0264 53.1589C46.3335 55.466 50.0825 55.466 52.3895 53.1589C54.6966 50.8518 54.6966 47.1028 52.3895 44.7958L51.0437 43.45L43.9303 36.3365L36.4323 28.8386L43.5458 21.7251L59.5991 37.7784C63.6365 41.8158 65.0784 47.5835 63.8287 52.8705C68.539 53.5434 72.0957 57.5808 72.0957 62.3872C72.0957 67.6742 67.77 72 62.483 72C57.6766 71.9038 53.7353 68.5394 52.8702 64.2136Z" fill="#F44321"/>
<path d="M50.0826 44.2184L42.5846 51.7164L35.4712 58.8299L34.1254 60.1757C29.9919 64.3092 24.2242 65.655 19.0333 64.4053C18.072 68.731 14.2269 71.9033 9.61278 71.9033C4.32575 71.9033 0 67.5775 0 62.2905C0 57.7725 3.17222 53.9274 7.40184 52.9661C6.05605 47.5829 7.40184 41.8152 11.5353 37.6817L12.1121 37.105L19.2256 44.2184L18.6488 44.7952C16.3417 47.1023 16.3417 50.8513 18.6488 53.1583C20.9559 55.4654 24.7049 55.4654 27.0119 53.1583L28.3577 51.8125L35.4712 44.6991L42.9691 37.2011L50.0826 44.2184Z" fill="#5091CD"/>
</svg>
