<svg width="73" height="72" viewBox="0 0 73 72" fill="none" xmlns="http://www.w3.org/2000/svg">
<path d="M48.1309 57.0067C48.1309 59.8649 45.8138 62.182 42.9556 62.182C42.9535 62.182 42.9535 62.182 42.9513 62.182C42.9295 62.182 42.9033 62.182 42.8793 62.182C41.4676 62.182 40.1891 61.6016 39.2727 60.6656C38.328 59.7602 37.7389 58.4882 37.7389 57.0765C37.7389 57.0504 37.7389 57.022 37.7389 56.9958V57.0002C37.752 54.1267 40.0778 51.8031 42.9491 51.7878H42.9513H43.0276C44.4371 51.7878 45.7113 52.3747 46.6145 53.3194L46.6167 53.3216C47.5505 54.238 48.1309 55.5144 48.1309 56.9238V57.0067ZM24.4756 57.0024V57.0787C24.4756 58.4882 23.8887 59.7624 22.944 60.6656L22.9418 60.6678C22.0255 61.6016 20.7491 62.182 19.3396 62.182C19.3135 62.182 19.2851 62.182 19.2589 62.182H19.2633C19.2633 62.182 19.2611 62.182 19.2589 62.182C16.4007 62.182 14.0836 59.8649 14.0836 57.0067C14.0836 57.0045 14.0836 57.0045 14.0836 57.0024C14.0836 56.9805 14.0836 56.9544 14.0836 56.9304C14.0836 55.5187 14.664 54.2402 15.6 53.3238C16.5055 52.3791 17.7775 51.79 19.1891 51.79H19.2698H19.2655C22.1389 51.8031 24.4625 54.1289 24.4778 57.0002L24.4756 57.0024ZM0 9.81836C1.09309 10.9791 2.232 12.0569 3.42982 13.0693L3.49091 13.1195C4.61018 14.0489 5.86036 14.9064 7.18691 15.646L7.31345 15.7114C8.51127 16.3965 9.92509 17.0664 11.3935 17.6293L11.6095 17.7013C13.056 18.2424 14.8124 18.7376 16.6167 19.0998L16.8458 19.1391C18.8982 19.5609 21.0036 19.8925 23.1622 20.134C25.3207 20.3754 27.9527 20.5704 31.0582 20.7187C34.1636 20.8671 37.3636 20.9674 40.6582 21.0198C43.9527 21.0722 47.8742 21.0984 52.4225 21.0984C55.3491 21.0984 57.9229 21.1507 60.144 21.2554C62.256 21.3427 64.2284 21.5304 66.168 21.8162L65.8604 21.7791C67.3505 21.9885 68.6749 22.294 69.9513 22.6998L69.7767 22.6518C70.6495 22.8984 71.4044 23.3282 72.024 23.902L72.0196 23.8998C72.4494 24.3165 72.7309 24.886 72.7767 25.5187V25.5274C72.7702 26.2802 72.5411 26.9805 72.1527 27.5631L72.1615 27.55C71.6095 28.462 71.0204 29.2518 70.3658 29.9805L70.3789 29.9653C69.6313 30.8176 68.6894 31.7762 67.5534 32.8409C66.4174 33.9056 65.1956 35.006 63.888 36.142C62.5804 37.278 61.1171 38.5304 59.4982 39.8991C55.6029 43.2053 52.592 45.8053 50.4654 47.6991C51.2356 46.3922 52.0364 45.2642 52.9222 44.2125L52.8916 44.2518C53.8909 43.0314 54.88 41.9209 55.8589 40.9202C56.8378 39.9194 57.8327 38.8824 58.8436 37.8089C59.8545 36.7354 60.7273 35.7718 61.4618 34.918C62.1164 34.1805 62.6858 33.3449 63.1374 32.4416L63.168 32.3762C63.4473 31.8787 63.6109 31.2853 63.6109 30.6525C63.6109 30.4802 63.5978 30.3122 63.576 30.1464L63.5782 30.166C63.3469 29.4024 62.832 28.7871 62.1578 28.4271L62.1425 28.4205C61.0822 27.8053 59.8429 27.3514 58.5273 27.1333L58.464 27.1245C56.6094 26.7689 54.3949 26.5027 52.1411 26.3871L52.0211 26.3827C49.3447 26.214 46.1447 26.1616 42.4211 26.2256C38.8836 26.2678 35.5775 26.2045 32.5025 26.0358C29.4276 25.8671 26.7324 25.6249 24.4167 25.3093C21.9251 24.9754 19.7389 24.5238 17.6095 23.9304L17.9585 24.0133C15.8858 23.4569 14.208 22.8984 12.5716 22.2591L12.9207 22.3791C11.4327 21.7922 10.1607 21.1289 8.96509 20.3522L9.05018 20.4045C7.95491 19.7173 7.01236 19.0278 6.12 18.2773L6.15927 18.31C5.38254 17.6184 4.68 16.8787 4.04509 16.0845L4.01673 16.0496C3.47345 15.4016 2.94764 14.686 2.46982 13.9354L2.42182 13.8525C2.07273 13.2707 1.65164 12.5551 1.15855 11.7056C0.665455 10.8562 0.28 10.2293 0.00218182 9.8249L0 9.81836Z" fill="#1FBFF0"/>
</svg>
