<svg width="72" height="72" viewBox="0 0 72 72" fill="none" xmlns="http://www.w3.org/2000/svg">
<g clip-path="url(#clip0_191_10508)">
<path d="M37.7519 31.9439V56.9039H33.0959V30.1919L37.7519 31.9439Z" fill="black"/>
<path d="M19.152 29.616C19.152 23.232 22.632 19.752 26.712 19.752C30.792 19.752 31.368 20.328 36 22.656C40.632 24.984 41.808 25.56 44.136 25.56C46.464 25.56 47.616 23.808 47.616 20.328H51.672C52.248 27.288 48.192 30.192 44.112 30.192C40.032 30.192 38.88 29.616 34.824 27.288C30.768 24.96 29.592 24.384 27.264 24.384C24.936 24.384 23.784 26.136 23.208 30.192L19.152 29.616Z" fill="black"/>
<path d="M36 72C16.152 72 0 55.848 0 36C0 16.152 16.152 0 36 0C55.848 0 72 16.152 72 36C72 55.848 55.848 72 36 72ZM36 2.328C17.424 2.328 2.328 17.424 2.328 36C2.328 54.576 17.424 69.672 36 69.672C54.576 69.672 69.672 54.576 69.672 36C69.672 17.424 54.576 2.328 36 2.328Z" fill="black"/>
</g>
<defs>
<clipPath id="clip0_191_10508">
<rect width="72" height="72" fill="white"/>
</clipPath>
</defs>
</svg>
