<svg width="166" height="184" viewBox="0 0 166 184" fill="none" xmlns="http://www.w3.org/2000/svg">
<mask id="path-1-inside-1_2017_87" fill="white">
<path fill-rule="evenodd" clip-rule="evenodd" d="M157.093 56.6316C160.829 50.8869 163 44.0303 163 36.6667C163 16.4162 146.584 0 126.333 0C115.477 0 105.723 4.71808 99.0091 12.2156C93.8298 11.1993 88.4771 10.6667 83 10.6667C37.3445 10.6667 0.333374 47.6778 0.333374 93.3333C0.333374 138.989 37.3445 176 83 176C128.656 176 165.667 138.989 165.667 93.3333C165.667 80.1512 162.581 67.6896 157.093 56.6316Z"/>
</mask>
<path fill-rule="evenodd" clip-rule="evenodd" d="M157.093 56.6316C160.829 50.8869 163 44.0303 163 36.6667C163 16.4162 146.584 0 126.333 0C115.477 0 105.723 4.71808 99.0091 12.2156C93.8298 11.1993 88.4771 10.6667 83 10.6667C37.3445 10.6667 0.333374 47.6778 0.333374 93.3333C0.333374 138.989 37.3445 176 83 176C128.656 176 165.667 138.989 165.667 93.3333C165.667 80.1512 162.581 67.6896 157.093 56.6316Z" fill="white"/>
<path d="M157.093 56.6316L154.858 55.1776L154.028 56.4536L154.704 57.8171L157.093 56.6316ZM99.0091 12.2156L98.4956 14.8324L99.9839 15.1245L100.996 13.9946L99.0091 12.2156ZM160.333 36.6667C160.333 43.4987 158.321 49.8525 154.858 55.1776L159.329 58.0855C163.338 51.9212 165.667 44.5619 165.667 36.6667H160.333ZM126.333 2.66667C145.111 2.66667 160.333 17.889 160.333 36.6667H165.667C165.667 14.9435 148.057 -2.66667 126.333 -2.66667V2.66667ZM100.996 13.9946C107.225 7.03802 116.267 2.66667 126.333 2.66667V-2.66667C114.687 -2.66667 104.221 2.39815 97.0225 10.4367L100.996 13.9946ZM83 13.3333C88.3038 13.3333 93.4845 13.8491 98.4956 14.8324L99.5226 9.59888C94.175 8.54954 88.6504 8 83 8V13.3333ZM3.00004 93.3333C3.00004 49.1506 38.8173 13.3333 83 13.3333V8C35.8717 8 -2.33329 46.205 -2.33329 93.3333H3.00004ZM83 173.333C38.8173 173.333 3.00004 137.516 3.00004 93.3333H-2.33329C-2.33329 140.462 35.8717 178.667 83 178.667V173.333ZM163 93.3333C163 137.516 127.183 173.333 83 173.333V178.667C130.128 178.667 168.333 140.462 168.333 93.3333H163ZM154.704 57.8171C160.014 68.5149 163 80.5716 163 93.3333H168.333C168.333 79.7307 165.149 66.8643 159.482 55.4461L154.704 57.8171Z" fill="black" mask="url(#path-1-inside-1_2017_87)"/>
<mask id="path-3-outside-2_2017_87" maskUnits="userSpaceOnUse" x="116" y="17" width="25" height="24" fill="black">
<rect fill="white" x="116" y="17" width="25" height="24"/>
<path d="M117.849 29.9688L118.068 27.8125C118.214 26.6042 118.38 25.1458 118.568 23.4375L118.943 20.3125C119.026 20.0417 119.151 19.8854 119.318 19.8438C119.505 19.8021 119.755 19.7812 120.068 19.7812C120.38 19.7812 120.609 19.8646 120.755 20.0312C120.901 20.1771 120.974 20.3646 120.974 20.5938C120.995 20.8229 120.974 21.0833 120.911 21.375C120.849 21.6667 120.818 21.9479 120.818 22.2188C122.276 22.2188 123.724 22.0625 125.161 21.75C126.62 21.4375 128.068 21.0938 129.505 20.7188C130.943 20.3438 132.38 20 133.818 19.6875C135.255 19.375 136.703 19.2188 138.161 19.2188C138.37 19.2188 138.557 19.25 138.724 19.3125C138.911 19.3542 139.057 19.5208 139.161 19.8125C139.078 20.0625 138.932 20.2708 138.724 20.4375C138.516 20.6042 138.161 20.7708 137.661 20.9375C137.182 21.1042 136.526 21.2812 135.693 21.4688C134.859 21.6354 133.786 21.8646 132.474 22.1562C131.161 22.4271 129.557 22.7604 127.661 23.1562C125.786 23.5521 123.568 24.0417 121.005 24.625V28.625C121.672 28.5625 122.432 28.4583 123.286 28.3125C124.87 28.0417 126.078 27.9062 126.911 27.9062C127.745 27.9062 128.432 27.9167 128.974 27.9375C129.536 27.9583 130.172 28.1042 130.88 28.375C132.401 28.9583 133.255 30.1562 133.443 31.9688C133.443 33.2812 133.078 34.3958 132.349 35.3125C131.641 36.2083 130.745 36.9271 129.661 37.4688C127.62 38.4896 125.245 39 122.536 39C121.953 39 121.536 38.9375 121.286 38.8125C121.036 38.6875 120.911 38.4167 120.911 38C120.911 37.5833 121.078 37.1875 121.411 36.8125C121.745 36.4375 122.12 36.25 122.536 36.25V36.8125C124.995 36.8125 126.766 36.6458 127.849 36.3125C128.932 35.9583 129.786 35.4792 130.411 34.875C131.057 34.25 131.38 33.4792 131.38 32.5625C131.38 31.6458 131.193 30.9792 130.818 30.5625C130.443 30.1458 129.984 29.8333 129.443 29.625C128.609 29.2917 127.661 29.125 126.599 29.125C125.536 29.125 124.734 29.2083 124.193 29.375C123.651 29.5417 123.12 29.7292 122.599 29.9375C121.203 30.4583 120.141 30.7188 119.411 30.7188H118.911C118.203 30.7188 117.849 30.4688 117.849 29.9688Z"/>
</mask>
<path d="M117.849 29.9688L118.068 27.8125C118.214 26.6042 118.38 25.1458 118.568 23.4375L118.943 20.3125C119.026 20.0417 119.151 19.8854 119.318 19.8438C119.505 19.8021 119.755 19.7812 120.068 19.7812C120.38 19.7812 120.609 19.8646 120.755 20.0312C120.901 20.1771 120.974 20.3646 120.974 20.5938C120.995 20.8229 120.974 21.0833 120.911 21.375C120.849 21.6667 120.818 21.9479 120.818 22.2188C122.276 22.2188 123.724 22.0625 125.161 21.75C126.62 21.4375 128.068 21.0938 129.505 20.7188C130.943 20.3438 132.38 20 133.818 19.6875C135.255 19.375 136.703 19.2188 138.161 19.2188C138.37 19.2188 138.557 19.25 138.724 19.3125C138.911 19.3542 139.057 19.5208 139.161 19.8125C139.078 20.0625 138.932 20.2708 138.724 20.4375C138.516 20.6042 138.161 20.7708 137.661 20.9375C137.182 21.1042 136.526 21.2812 135.693 21.4688C134.859 21.6354 133.786 21.8646 132.474 22.1562C131.161 22.4271 129.557 22.7604 127.661 23.1562C125.786 23.5521 123.568 24.0417 121.005 24.625V28.625C121.672 28.5625 122.432 28.4583 123.286 28.3125C124.87 28.0417 126.078 27.9062 126.911 27.9062C127.745 27.9062 128.432 27.9167 128.974 27.9375C129.536 27.9583 130.172 28.1042 130.88 28.375C132.401 28.9583 133.255 30.1562 133.443 31.9688C133.443 33.2812 133.078 34.3958 132.349 35.3125C131.641 36.2083 130.745 36.9271 129.661 37.4688C127.62 38.4896 125.245 39 122.536 39C121.953 39 121.536 38.9375 121.286 38.8125C121.036 38.6875 120.911 38.4167 120.911 38C120.911 37.5833 121.078 37.1875 121.411 36.8125C121.745 36.4375 122.12 36.25 122.536 36.25V36.8125C124.995 36.8125 126.766 36.6458 127.849 36.3125C128.932 35.9583 129.786 35.4792 130.411 34.875C131.057 34.25 131.38 33.4792 131.38 32.5625C131.38 31.6458 131.193 30.9792 130.818 30.5625C130.443 30.1458 129.984 29.8333 129.443 29.625C128.609 29.2917 127.661 29.125 126.599 29.125C125.536 29.125 124.734 29.2083 124.193 29.375C123.651 29.5417 123.12 29.7292 122.599 29.9375C121.203 30.4583 120.141 30.7188 119.411 30.7188H118.911C118.203 30.7188 117.849 30.4688 117.849 29.9688Z" fill="#FF7C02"/>
<path d="M117.849 29.9688L116.522 29.8342L116.516 29.9013V29.9688H117.849ZM118.068 27.8125L116.744 27.6527L116.742 27.6653L116.741 27.6779L118.068 27.8125ZM118.568 23.4375L117.244 23.2786L117.242 23.292L118.568 23.4375ZM118.943 20.3125L117.668 19.9204L117.633 20.0348L117.619 20.1536L118.943 20.3125ZM119.318 19.8438L119.028 18.5422L119.011 18.546L118.994 18.5502L119.318 19.8438ZM120.755 20.0312L119.752 20.9093L119.781 20.9427L119.812 20.9741L120.755 20.0312ZM120.974 20.5938H119.641V20.6542L119.646 20.7145L120.974 20.5938ZM120.818 22.2188H119.484V23.5521H120.818V22.2188ZM125.161 21.75L124.882 20.4463L124.878 20.4471L125.161 21.75ZM138.724 19.3125L138.256 20.5609L138.343 20.5938L138.435 20.6141L138.724 19.3125ZM139.161 19.8125L140.426 20.2341L140.572 19.7975L140.417 19.3641L139.161 19.8125ZM137.661 20.9375L137.24 19.6726L137.232 19.6753L137.223 19.6782L137.661 20.9375ZM135.693 21.4688L135.954 22.7762L135.97 22.7731L135.985 22.7696L135.693 21.4688ZM132.474 22.1562L132.743 23.4621L132.753 23.46L132.763 23.4578L132.474 22.1562ZM127.661 23.1562L127.389 21.8511L127.386 21.8517L127.661 23.1562ZM121.005 24.625L120.709 23.3249L119.672 23.5611V24.625H121.005ZM121.005 28.625H119.672V30.0892L121.13 29.9525L121.005 28.625ZM123.286 28.3125L123.511 29.6268L123.511 29.6267L123.286 28.3125ZM128.974 27.9375L128.923 29.2698L128.925 29.2699L128.974 27.9375ZM130.88 28.375L131.358 27.1301L131.356 27.1296L130.88 28.375ZM133.443 31.9688H134.776V31.9L134.769 31.8316L133.443 31.9688ZM132.349 35.3125L131.305 34.4825L131.303 34.4855L132.349 35.3125ZM129.661 37.4688L129.065 36.2762L129.661 37.4688ZM122.536 36.25H123.87V34.9167H122.536V36.25ZM122.536 36.8125H121.203V38.1458H122.536V36.8125ZM127.849 36.3125L128.241 37.5869L128.252 37.5834L128.263 37.5798L127.849 36.3125ZM130.411 34.875L131.338 35.8337L131.339 35.8331L130.411 34.875ZM129.443 29.625L128.948 30.863L128.956 30.8663L128.964 30.8695L129.443 29.625ZM122.599 29.9375L123.065 31.1867L123.08 31.1813L123.094 31.1755L122.599 29.9375ZM119.175 30.1033L119.394 27.9471L116.741 27.6779L116.522 29.8342L119.175 30.1033ZM119.391 27.9723C119.538 26.7577 119.705 25.2943 119.893 23.583L117.242 23.292C117.055 24.9974 116.889 26.4507 116.744 27.6527L119.391 27.9723ZM119.892 23.5964L120.267 20.4714L117.619 20.1536L117.244 23.2786L119.892 23.5964ZM120.217 20.7046C120.228 20.6679 120.216 20.73 120.14 20.8251C120.051 20.9359 119.886 21.0761 119.641 21.1373L118.994 18.5502C118.137 18.7647 117.797 19.5031 117.668 19.9204L120.217 20.7046ZM119.607 21.1453C119.659 21.1337 119.8 21.1146 120.068 21.1146V18.4479C119.71 18.4479 119.351 18.4704 119.028 18.5422L119.607 21.1453ZM120.068 21.1146C120.11 21.1146 120.084 21.1208 120.018 21.0968C119.943 21.0696 119.841 21.0118 119.752 20.9093L121.759 19.1532C121.269 18.5935 120.601 18.4479 120.068 18.4479V21.1146ZM119.812 20.9741C119.758 20.9196 119.709 20.8475 119.677 20.7645C119.645 20.6843 119.641 20.6217 119.641 20.5938H122.307C122.307 20.054 122.123 19.5132 121.698 19.0884L119.812 20.9741ZM119.646 20.7145C119.652 20.777 119.65 20.8986 119.608 21.0956L122.215 21.6544C122.298 21.268 122.338 20.8689 122.302 20.473L119.646 20.7145ZM119.608 21.0956C119.528 21.47 119.484 21.8451 119.484 22.2188H122.151C122.151 22.0507 122.17 21.8634 122.215 21.6544L119.608 21.0956ZM120.818 23.5521C122.372 23.5521 123.915 23.3855 125.445 23.0529L124.878 20.4471C123.533 20.7395 122.18 20.8854 120.818 20.8854V23.5521ZM125.441 23.0537C126.918 22.7371 128.385 22.3889 129.842 22.0089L129.169 19.4286C127.75 19.7986 126.321 20.1379 124.882 20.4463L125.441 23.0537ZM129.842 22.0089C131.262 21.6385 132.681 21.299 134.101 20.9904L133.534 18.3846C132.079 18.701 130.624 19.049 129.169 19.4286L129.842 22.0089ZM134.101 20.9904C135.446 20.698 136.799 20.5521 138.161 20.5521V17.8854C136.607 17.8854 135.064 18.052 133.534 18.3846L134.101 20.9904ZM138.161 20.5521C138.237 20.5521 138.262 20.5633 138.256 20.5609L139.192 18.0641C138.853 17.9367 138.503 17.8854 138.161 17.8854V20.5521ZM138.435 20.6141C138.21 20.5642 138.055 20.4431 137.971 20.3468C137.899 20.2646 137.889 20.2146 137.906 20.2609L140.417 19.3641C140.257 18.915 139.873 18.202 139.013 18.0109L138.435 20.6141ZM137.897 19.3909C137.895 19.3952 137.894 19.3966 137.895 19.3959C137.895 19.3951 137.896 19.3935 137.897 19.3916C137.899 19.3897 137.899 19.3889 137.899 19.3892C137.899 19.3895 137.896 19.392 137.891 19.3963L139.557 21.4787C139.963 21.1536 140.261 20.7312 140.426 20.2341L137.897 19.3909ZM137.891 19.3963C137.897 19.3918 137.856 19.4236 137.734 19.4811C137.618 19.5359 137.456 19.6006 137.24 19.6726L138.083 22.2024C138.616 22.0248 139.157 21.7986 139.557 21.4787L137.891 19.3963ZM137.223 19.6782C136.813 19.8209 136.212 19.9851 135.4 20.1679L135.985 22.7696C136.84 22.5774 137.551 22.3874 138.099 22.1968L137.223 19.6782ZM135.431 20.1613C134.585 20.3306 133.502 20.562 132.185 20.8547L132.763 23.4578C134.071 23.1672 135.134 22.9403 135.954 22.7762L135.431 20.1613ZM132.205 20.8504C130.891 21.1215 129.285 21.4551 127.389 21.8511L127.934 24.4614C129.829 24.0657 131.432 23.7326 132.743 23.4621L132.205 20.8504ZM127.386 21.8517C125.502 22.2494 123.276 22.7406 120.709 23.3249L121.301 25.9251C123.859 25.3428 126.071 24.8548 127.937 24.4608L127.386 21.8517ZM119.672 24.625V28.625H122.339V24.625H119.672ZM121.13 29.9525C121.838 29.8861 122.633 29.7768 123.511 29.6268L123.062 26.9982C122.232 27.1399 121.506 27.2389 120.881 27.2975L121.13 29.9525ZM123.511 29.6267C125.075 29.3592 126.194 29.2396 126.911 29.2396V26.5729C125.962 26.5729 124.664 26.7241 123.062 26.9983L123.511 29.6267ZM126.911 29.2396C127.736 29.2396 128.405 29.2499 128.923 29.2698L129.025 26.6052C128.46 26.5834 127.754 26.5729 126.911 26.5729V29.2396ZM128.925 29.2699C129.3 29.2838 129.788 29.3849 130.404 29.6204L131.356 27.1296C130.556 26.8235 129.773 26.6328 129.023 26.6051L128.925 29.2699ZM130.403 29.6199C130.946 29.8282 131.317 30.1219 131.576 30.485C131.841 30.8562 132.041 31.3751 132.116 32.1059L134.769 31.8316C134.657 30.7499 134.337 29.7636 133.747 28.9368C133.152 28.1021 132.335 27.5051 131.358 27.1301L130.403 29.6199ZM132.109 31.9688C132.109 33.0182 131.824 33.8302 131.305 34.4825L133.392 36.1425C134.332 34.9615 134.776 33.5443 134.776 31.9688H132.109ZM131.303 34.4855C130.723 35.2188 129.984 35.8165 129.065 36.2762L130.258 38.6613C131.505 38.0376 132.558 37.1979 133.395 36.1395L131.303 34.4855ZM129.065 36.2762C127.24 37.1887 125.076 37.6667 122.536 37.6667V40.3333C125.413 40.3333 127.999 39.7905 130.258 38.6613L129.065 36.2762ZM122.536 37.6667C122.288 37.6667 122.108 37.653 121.984 37.6345C121.852 37.6147 121.836 37.5965 121.883 37.6199L120.69 40.0051C121.237 40.2784 121.924 40.3333 122.536 40.3333V37.6667ZM121.883 37.6199C121.956 37.6564 122.028 37.7082 122.09 37.7744C122.152 37.8398 122.192 37.9051 122.216 37.9569C122.26 38.0517 122.245 38.087 122.245 38H119.578C119.578 38.6443 119.785 39.5523 120.69 40.0051L121.883 37.6199ZM122.245 38C122.245 37.9737 122.245 37.8816 122.408 37.6983L120.415 35.9267C119.911 36.4934 119.578 37.1929 119.578 38H122.245ZM122.408 37.6983C122.484 37.6132 122.53 37.5878 122.539 37.5832C122.544 37.5809 122.543 37.5816 122.539 37.5826C122.535 37.5836 122.533 37.5833 122.536 37.5833V34.9167C121.662 34.9167 120.945 35.3304 120.415 35.9267L122.408 37.6983ZM121.203 36.25V36.8125H123.87V36.25H121.203ZM122.536 38.1458C125.01 38.1458 126.953 37.9832 128.241 37.5869L127.457 35.0381C126.578 35.3085 124.98 35.4792 122.536 35.4792V38.1458ZM128.263 37.5798C129.481 37.1816 130.53 36.6148 131.338 35.8337L129.485 33.9163C129.043 34.3435 128.383 34.735 127.435 35.0452L128.263 37.5798ZM131.339 35.8331C132.25 34.9514 132.714 33.8322 132.714 32.5625H130.047C130.047 33.1261 129.865 33.5486 129.484 33.9169L131.339 35.8331ZM132.714 32.5625C132.714 31.5129 132.507 30.4467 131.809 29.6705L129.827 31.4545C129.878 31.5116 130.047 31.7787 130.047 32.5625H132.714ZM131.809 29.6705C131.288 29.092 130.652 28.6616 129.921 28.3805L128.964 30.8695C129.317 31.0051 129.597 31.1996 129.827 31.4545L131.809 29.6705ZM129.938 28.387C128.921 27.9803 127.801 27.7917 126.599 27.7917V30.4583C127.522 30.4583 128.298 30.6031 128.948 30.863L129.938 28.387ZM126.599 27.7917C125.498 27.7917 124.536 27.8744 123.801 28.1006L124.585 30.6494C124.933 30.5423 125.575 30.4583 126.599 30.4583V27.7917ZM123.801 28.1006C123.224 28.2779 122.659 28.4775 122.104 28.6995L123.094 31.1755C123.581 30.9808 124.078 30.8054 124.585 30.6494L123.801 28.1006ZM122.133 28.6883C120.764 29.1992 119.889 29.3854 119.411 29.3854V32.0521C120.392 32.0521 121.643 31.7175 123.065 31.1867L122.133 28.6883ZM119.411 29.3854H118.911V32.0521H119.411V29.3854ZM118.911 29.3854C118.809 29.3854 118.76 29.3759 118.752 29.374C118.744 29.3721 118.801 29.3839 118.883 29.442C118.974 29.5059 119.062 29.6036 119.121 29.7275C119.176 29.8446 119.182 29.9367 119.182 29.9688H116.516C116.516 30.5755 116.756 31.2046 117.346 31.6205C117.85 31.9764 118.441 32.0521 118.911 32.0521V29.3854Z" fill="#FF7C02" mask="url(#path-3-outside-2_2017_87)"/>
</svg>
