<svg width="17" height="31" viewBox="0 0 17 31" fill="none" xmlns="http://www.w3.org/2000/svg">
<path d="M13.4028 14.768L13.4028 14.7681C15.8005 16.4498 16.4537 18.8522 15.6395 20.9229C14.8639 22.8953 12.7882 24.489 9.8182 24.8605C10.2136 26.2834 10.1789 27.7947 9.71387 29.2022C9.6868 29.3298 9.63605 29.4513 9.56418 29.5604C9.48829 29.6756 9.39035 29.7747 9.27599 29.8519C9.16164 29.9291 9.03314 29.9829 8.89791 30.0102C8.76268 30.0375 8.62338 30.0377 8.48803 30.011L8.38146 29.9899L8.31212 29.9063C7.70154 29.1698 7.27991 28.2955 7.08385 27.3592C6.91325 26.5445 6.91791 25.7043 7.0958 24.894C5.936 24.7801 4.80729 24.4463 3.77039 23.9095L3.76287 23.9056L3.75558 23.9013C3.08557 23.5058 2.2563 22.961 1.63347 22.3124C1.01842 21.672 0.544636 20.8655 0.737861 19.9651C0.787934 19.6943 0.942781 19.454 1.16893 19.2966C1.39668 19.138 1.67809 19.0764 1.95126 19.1254C2.22443 19.1743 2.46697 19.3297 2.62553 19.5575C2.7841 19.7852 2.84569 20.0666 2.79676 20.3398L2.79494 20.35L2.79243 20.36C2.79249 20.3598 2.79249 20.3599 2.79249 20.3604C2.79251 20.3671 2.79278 20.4384 2.92828 20.5981C3.059 20.7521 3.26158 20.9236 3.50166 21.0964C3.9782 21.4394 4.54424 21.7467 4.81308 21.8865C5.96805 22.479 7.71717 22.6642 9.3386 22.3373C10.9628 22.0098 12.3717 21.1886 12.9468 19.86C13.0986 19.5084 13.0172 19.0332 12.7442 18.5331C12.4759 18.0417 12.0581 17.5961 11.6677 17.3423L11.6632 17.3394L11.6632 17.3393C10.5075 16.5587 9.21999 16.3156 7.80251 16.0478C7.77343 16.0424 7.7443 16.0369 7.71512 16.0313C6.28189 15.7604 4.73686 15.4545 3.21728 14.48C2.52629 14.1455 1.95232 13.6099 1.57082 12.9433C1.18607 12.271 1.01535 11.4975 1.08141 10.7257L1.08222 10.7163L1.0836 10.707C1.3258 9.07283 2.15161 7.58166 3.40828 6.5093C4.55455 5.53115 5.98856 4.96183 7.48535 4.88289C7.20206 3.93086 7.30767 2.98039 7.55566 2.24148C7.69784 1.81784 7.8907 1.45155 8.0966 1.18473C8.19928 1.05167 8.31112 0.935652 8.42873 0.850225C8.54204 0.767915 8.68782 0.694495 8.85191 0.694445L13.4028 14.768ZM13.4028 14.768L13.399 14.7655C11.9156 13.7576 10.3729 13.4392 8.91639 13.1669C8.84698 13.154 8.77781 13.1411 8.70887 13.1283C7.31752 12.8695 6.02344 12.6288 4.83468 11.8858L4.83473 11.8857L4.82851 11.8821C4.78752 11.8578 4.74823 11.8347 4.71056 11.8125C4.45878 11.6644 4.27936 11.5589 4.14871 11.4282C4.02461 11.3041 3.94825 11.1588 3.95487 10.8993M13.4028 14.768L3.95487 10.8993M3.95487 10.8993C3.99119 10.4637 4.11291 10.0396 4.31311 9.65101L4.31319 9.65105L4.31645 9.64432C5.10291 8.02163 7.13335 7.23401 9.16221 7.08947C10.1646 7.01807 11.1321 7.10757 11.8891 7.31415C12.2678 7.41747 12.5846 7.54761 12.8246 7.69484C13.0477 7.83173 13.1873 7.9727 13.2598 8.10458C13.2845 8.23511 13.3362 8.35929 13.4117 8.46911C13.498 8.5947 13.6131 8.69789 13.7473 8.77011C13.8815 8.84234 14.031 8.88153 14.1834 8.88442C14.3358 8.88731 14.4866 8.85382 14.6235 8.78674C14.7603 8.71965 14.8792 8.62091 14.9703 8.49868C15.0613 8.37646 15.1219 8.23429 15.147 8.08397C15.1721 7.93364 15.1611 7.77949 15.1147 7.63431C15.0736 7.50558 15.0057 7.38719 14.9159 7.28677C14.5996 6.68244 14.1348 6.1681 13.565 5.79226C12.9897 5.41279 12.3267 5.18737 11.6396 5.13738C11.1805 5.03329 10.7158 4.95658 10.2478 4.90763C10.3691 4.40217 10.4051 3.87909 10.3535 3.36006C10.2919 2.74029 10.1067 2.13943 9.80914 1.5929C9.80302 1.49561 9.78209 1.39963 9.7469 1.30832C9.70065 1.18831 9.63072 1.07883 9.54128 0.986407C9.45184 0.893982 9.34471 0.820502 9.22628 0.770344C9.1079 0.720207 8.98064 0.694396 8.85208 0.694445L3.95487 10.8993Z" fill="#00FF66" stroke="black" stroke-width="0.611111"/>
</svg>
